<?xml version="1.0" encoding="UTF-8"?><svg version="1.1" id="Layer_1" xmlns="http://www.w3.org/2000/svg" xmlns:xlink="http://www.w3.org/1999/xlink" x="0px" y="0px" viewBox="0 0 1000 1000" enable-background="new 0 0 1000 1000" xml:space="preserve" width="1000px" height="1000px">
<ellipse fill="#E4E8EC" cx="500" cy="823.155" rx="258.345" ry="45.198"/>
<path fill="#FFF1E5" d="M499.838,757.559L499.838,757.559c-113.953,0-206.623-92.342-206.623-206.623V311.24h413.247v239.7
	C706.462,664.889,614.12,757.559,499.838,757.559z"/>
<path fill="#FFD7CF" d="M499.838,729.07L499.838,729.07c-113.953,0-206.623-92.342-206.623-206.623v28.489
	c0,113.953,92.342,206.623,206.623,206.623l0,0c113.954,0,206.624-92.342,206.624-206.623v-28.489
	C706.462,636.4,614.12,729.07,499.838,729.07z"/>
<path fill="#441A36" d="M499.839,760.559c-115.587,0-209.624-94.037-209.624-209.623V311.24c0-1.657,1.343-3,3-3h413.247
	c1.657,0,3,1.343,3,3v239.7C709.462,666.522,615.426,760.559,499.839,760.559z M296.215,314.24v236.7
	c0,112.278,91.346,203.623,203.624,203.623s203.623-91.345,203.623-203.623v-236.7H296.215z"/>
<path fill="#FFD7CF" d="M708.1,335.144c-0.655-11.133-1.31-22.594-1.637-33.728c-137.531,6.549-275.716,5.567-412.919-6.549
	c-0.983,12.771-1.638,25.542-2.62,38.312c6.222,5.567,12.771,11.461,18.992,17.028c5.24,2.619,12.116,6.221,18.338,9.5
	c27.506,14.408,65.818,32.745,102.493,39.949c13.801,2.702,27.854,3.909,41.914,3.6c61.888-0.655,113.953-25.214,135.893-35.365
	c3.274-1.637,5.894-2.947,7.531-3.274c1.422-0.705,2.999-1.042,4.585-0.982c3.929,0,8.513,0.982,14.08,1.964
	c7.2,1.638,15.718,3.275,25.214,2.62c10.77-0.625,21.174-4.131,30.126-10.151C695.656,350.207,701.877,342.675,708.1,335.144z"/>
<g opacity="0.34">
	<rect x="270.294" y="444.513" fill="#231A17" width="22.922" height="21.612"/>
	<rect x="706.462" y="444.513" fill="#231A17" width="22.922" height="21.612"/>
</g>
<path fill="#D37157" d="M608.553,190.712c0,0-165.364-109.042-302.24,12.77c-25.541,22.594-35.692,55.012-35.692,84.811v177.832
	h22.922V351.516c0-8.513,5.894-15.062,13.1-15.062l0,0c11.788,0,75.642,34.055,129.671,43.551
	c81.536,14.08,155.868-23.577,171.914-29.143c27.506-9.824,49.773,24.231,84.482-14.081h1.31c7.2,0,13.1,6.877,13.1,15.063v114.609
	h22.921V289.275C729.383,250.636,684.85,153.709,608.553,190.712z"/>
<path fill="#441A36" d="M730.038,469.453h-22.922c-1.657,0-3-1.343-3-3V351.844c0-6.535-4.62-12.057-10.09-12.063
	c-22.517,24.2-40.788,19.478-56.932,15.3c-9.479-2.45-18.429-4.766-27.86-1.4c-2.011,0.7-5.032,1.942-8.856,3.516
	c-20.861,8.592-70.164,28.894-127.032,28.9c-12.581,0.027-25.142-1.023-37.544-3.138c-33.729-5.928-70.571-21.055-97.472-32.1
	c-14.906-6.12-27.78-11.406-31.689-11.406c-5.662,0-10.1,5.3-10.1,12.063v114.609c0,1.657-1.343,3-3,3h-22.92c-1.657,0-3-1.343-3-3
	V288.293c0-34.691,13.378-66.423,36.705-87.058c31.618-28.135,67.409-46.335,106.374-54.08c31.143-6.19,64.34-5.744,98.669,1.324
	c52.291,10.766,91.518,33.927,99.393,38.814c24.335-11.324,47.377-10.484,68.5,2.5c35.2,21.635,55.321,72.524,55.777,99.431v177.229
	C733.039,468.11,731.696,469.453,730.038,469.453C730.039,469.453,730.038,469.453,730.038,469.453z M710.116,463.453h16.922
	V289.275c-0.441-26.065-20.788-74.619-52.919-94.37c-19.707-12.113-41.325-12.615-64.257-1.494c-0.952,0.462-2.077,0.388-2.96-0.194
	c-0.411-0.271-41.681-27.154-98.942-38.9c-33.517-6.876-65.888-7.3-96.209-1.252c-37.855,7.546-72.658,25.263-103.443,52.661
	c-22.046,19.5-34.687,49.6-34.687,82.569v174.83h16.922V351.517c0-10.129,7.071-18.063,16.1-18.063
	c4.866,0,14.994,4.066,33.968,11.857c26.648,10.941,63.142,25.925,96.223,31.739c70.176,12.117,134-14.169,161.261-25.4
	c3.913-1.611,7-2.884,9.149-3.628c11.141-3.979,21.416-1.321,31.354,1.247c16.143,4.173,31.393,8.117,51.888-14.507
	c0.569-0.627,1.377-0.985,2.224-0.986h1.311c8.876,0,16.1,8.1,16.1,18.063L710.116,463.453z"/>
<path fill="#441A36" d="M450.973,300.554c-25.55,0.048-51.056-2.136-76.226-6.527c-28.818-5.239-53.415-13.444-73.108-24.386
	c-24.877-13.823-41.979-32.072-50.831-54.241c-0.635-1.53,0.09-3.286,1.621-3.921s3.286,0.09,3.921,1.621
	c0.01,0.025,0.021,0.051,0.03,0.076c8.321,20.838,24.512,38.062,48.123,51.192c19.1,10.623,43.059,18.609,71.206,23.736
	c48.163,8.773,92.389,6.066,92.828,6.036c1.654-0.107,3.081,1.147,3.188,2.801s-1.147,3.081-2.801,3.188
	C468.752,300.139,462,300.554,450.973,300.554z"/>
<path fill="#441A36" d="M493.947,277.54c-0.063,0-0.128,0-0.192-0.006c-31.073-2.66-61.796-8.46-91.7-17.312
	c-28.31-8.493-52.781-19.28-72.735-32.06c-25.129-16.1-43.146-35.426-53.548-57.454c-0.726-1.489-0.108-3.285,1.381-4.011
	c1.489-0.726,3.285-0.108,4.011,1.381c0.011,0.023,0.022,0.045,0.032,0.068c22.534,47.716,79.1,73.284,122.582,86.329
	c29.466,8.727,59.741,14.447,90.36,17.071c1.654,0.105,2.909,1.53,2.804,3.184c-0.1,1.579-1.409,2.809-2.991,2.81H493.947z"/>
<path fill="#FFF1E5" d="M706.462,440.584v107.405c22.921,0,41.259-23.9,41.259-53.7l0,0
	C747.721,464.488,729.383,440.584,706.462,440.584z"/>
<path fill="#FFD7CF" d="M706.462,446.478v95.289c13.425-8.841,22.594-26.851,22.594-47.808l0,0
	C729.056,473.329,719.887,455.319,706.462,446.478z"/>
<path fill="#441A36" d="M706.462,550.988c-1.657,0-3-1.343-3-3v-107.4c0-1.657,1.343-3,3-3c12.036,0,23.261,5.984,31.6,16.85
	c8.161,10.627,12.655,24.779,12.655,39.852s-4.494,29.227-12.655,39.853C729.723,545.005,718.5,550.988,706.462,550.988z
	 M709.462,443.738v101.1c19.7-2.034,35.259-23.929,35.259-50.548S729.161,445.772,709.462,443.738L709.462,443.738z"/>
<path fill="#FFF1E5" d="M293.543,440.584v107.405c-22.922,0-41.259-23.9-41.259-53.7l0,0
	C251.956,464.488,270.621,440.584,293.543,440.584z"/>
<path fill="#FFD7CF" d="M293.543,448.443c-11.789,9.5-19.975,26.523-19.975,45.843l0,0c0,19.32,7.859,36.348,19.975,45.844V448.443z
	"/>
<path fill="#441A36" d="M293.543,550.988c-12.036,0-23.261-5.983-31.605-16.849c-8.161-10.626-12.655-24.78-12.655-39.853
	c-0.191-17.413,5.846-33.633,16.563-44.469c7.8-7.888,17.639-12.233,27.7-12.233c1.657,0,3,1.343,3,3v107.4
	c0.002,1.657-1.339,3.002-2.996,3.004C293.548,550.988,293.545,550.988,293.543,550.988z M290.543,443.733
	c-7.452,0.746-14.463,4.269-20.432,10.3c-9.6,9.7-15,24.361-14.828,40.216c0,26.651,15.56,48.547,35.26,50.581V443.733z"/>
<path fill="#441A36" d="M509.992,580.788c-0.236,0-0.471-0.028-0.7-0.084c-7.25-1.74-14.484-1.872-20.3-1.978
	c-8.056-0.148-14.42-0.264-14.42-5.851c-0.001-0.296,0.042-0.591,0.128-0.875l13.753-44.861c0.509-1.577,2.2-2.443,3.776-1.934
	c1.544,0.498,2.412,2.134,1.96,3.692l-13.287,43.34c2.718,0.365,5.458,0.53,8.2,0.494c6.1,0.111,13.7,0.25,21.588,2.143
	c1.612,0.385,2.606,2.003,2.222,3.615c-0.323,1.352-1.532,2.305-2.922,2.304L509.992,580.788z"/>
<path fill="#441A36" d="M504.474,673.6c-3.27,0.008-6.534-0.276-9.754-0.849c-1.64-0.235-2.779-1.755-2.545-3.395
	s1.755-2.779,3.395-2.545c0.073,0.01,0.146,0.024,0.218,0.039c18.13,3.282,40.345-4.194,55.276-18.6
	c11.186-10.793,16.36-23.571,14.57-35.98c-0.237-1.64,0.901-3.162,2.541-3.398s3.162,0.901,3.398,2.541
	c2.073,14.371-3.731,28.987-16.343,41.155C541.552,665.767,522.16,673.6,504.474,673.6z"/>
<path d="M425.507,491.029c-8.135,0-14.753-7.058-14.753-15.735s6.618-15.735,14.753-15.735s14.753,7.058,14.753,15.735
	S433.642,491.029,425.507,491.029z M425.507,461.559c-7.032,0-12.753,6.162-12.753,13.735s5.721,13.735,12.753,13.735
	s12.753-6.162,12.753-13.735S432.539,461.559,425.507,461.559z"/>
<ellipse fill="#441A36" cx="425.507" cy="475.294" rx="13.753" ry="14.735"/>
<path fill="#441A36" d="M378.023,447.186c-1.657-0.002-2.999-1.346-2.997-3.003c0.001-0.705,0.25-1.387,0.703-1.927
	c7.681-9.144,24.622-14.823,44.21-14.823c15.117,0,28.98,3.531,38.035,9.688c1.353,0.956,1.676,2.828,0.72,4.181
	c-0.932,1.319-2.741,1.664-4.093,0.78c-8.085-5.5-20.718-8.649-34.662-8.649c-17.593,0-33.144,4.978-39.617,12.682
	C379.752,446.794,378.91,447.186,378.023,447.186z"/>
<path d="M576.135,491.029c-8.135,0-14.753-7.058-14.753-15.735s6.618-15.735,14.753-15.735s14.754,7.058,14.754,15.735
	S584.271,491.029,576.135,491.029z M576.135,461.559c-7.032,0-12.753,6.162-12.753,13.735s5.721,13.735,12.753,13.735
	s12.754-6.162,12.754-13.735S583.167,461.559,576.135,461.559z"/>
<ellipse fill="#441A36" cx="576.135" cy="475.294" rx="13.753" ry="14.735"/>
<path fill="#441A36" d="M623.618,447.186c-0.887,0.001-1.729-0.391-2.3-1.071c-6.472-7.7-22.023-12.682-39.617-12.682
	c-13.943,0-26.576,3.152-34.661,8.649c-1.387,0.907-3.246,0.518-4.153-0.868c-0.884-1.352-0.539-3.161,0.78-4.093
	c9.055-6.157,22.918-9.688,38.034-9.688c19.589,0,36.529,5.679,44.211,14.823c1.066,1.268,0.902,3.161-0.367,4.227
	C625.005,446.937,624.322,447.186,623.618,447.186L623.618,447.186z"/>
<path fill="#A4FCEF" d="M657.031,593.745L657.031,593.745c0-18.051,0-36.102,0-54.152c-104.68-9.049-209.947-9.049-314.627,0v54.152
	l0,0c0,75.107,70.432,135.993,157.314,135.993S657.031,668.852,657.031,593.745z"/>
<path fill="#A4FCEF" d="M657.031,593.745L657.031,593.745c0-18.051,0-36.102,0-54.152c-104.68-9.049-209.947-9.049-314.627,0v54.152
	l0,0c0,75.107,70.432,135.993,157.314,135.993S657.031,668.852,657.031,593.745z"/>
<path fill="#8FEFDF" d="M499.718,682.961c-86.872,0-157.3-49.132-157.313-109.742v20.526l0,0
	c0,75.107,70.433,135.993,157.314,135.993s157.314-60.886,157.314-135.993l0,0V573.2C657.032,633.819,586.6,682.961,499.718,682.961
	z"/>
<polygon fill="#8FEFDF" points="342.406,573.199 342.405,573.198 342.405,573.199 "/>
<polygon fill="#8FEFDF" points="657.032,573.199 657.032,573.198 657.031,573.199 "/>
<g opacity="0.43">
	<path fill="#FFFFFF" d="M657.036,564.791c-0.087,0-0.174,0-0.262-0.011c-104.511-8.986-209.601-8.986-314.112,0
		c-1.651,0.143-3.105-1.08-3.247-2.731s1.08-3.104,2.731-3.247c104.855-9.014,210.289-9.014,315.144,0
		c1.651,0.142,2.874,1.595,2.733,3.245C659.889,563.598,658.592,564.79,657.036,564.791z"/>
</g>
<path fill="#441A36" d="M499.719,732.738c-88.4,0-160.315-62.352-160.315-138.993v-54.151c-0.001-1.557,1.19-2.856,2.741-2.99
	c104.854-9.041,210.291-9.041,315.145,0c1.551,0.134,2.742,1.433,2.741,2.99v54.151c0,37.21-16.731,72.167-47.113,98.431
	C582.66,718.333,542.459,732.738,499.719,732.738z M345.405,542.348v51.4c0,35.441,15.994,68.785,45.038,93.892
	c29.167,25.215,67.976,39.1,109.276,39.1c85.089,0,154.313-59.66,154.313-132.993l0,0v-51.4
	C551.34,533.647,448.097,533.648,345.405,542.348z"/>
<path fill="#441A36" d="M499.719,613.831c-49.465,0-95.7-7.677-120.671-20.035c-1.49-0.725-2.109-2.521-1.384-4.011
	s2.521-2.109,4.011-1.384c0.012,0.006,0.023,0.012,0.035,0.017c24.191,11.974,69.41,19.412,118.009,19.412
	s93.817-7.438,118.009-19.412c1.49-0.725,3.285-0.106,4.011,1.384c0.719,1.476,0.118,3.255-1.349,3.993
	C595.422,606.154,549.184,613.831,499.719,613.831z"/>
<path fill="#441A36" d="M499.719,669.348c-44.091,0-85.323-7.7-107.606-20.1c-1.449-0.806-1.971-2.634-1.165-4.083
	c0.806-1.449,2.634-1.971,4.083-1.165l0,0c21.444,11.933,61.558,19.345,104.688,19.345s83.244-7.409,104.686-19.345
	c1.458-0.786,3.278-0.242,4.064,1.217c0.771,1.431,0.263,3.216-1.146,4.025C585.041,661.645,543.81,669.348,499.719,669.348z"/>
<path fill="#441A36" d="M644.7,649.624c-1.657,0-3-1.342-3.001-2.999c0-0.844,0.355-1.648,0.978-2.217
	c39.431-35.981,58.932-91.43,60.789-96.908v-90.712l-43.768,84.19c-0.764,1.47-2.576,2.042-4.046,1.278
	c-1.47-0.764-2.042-2.576-1.278-4.046l49.43-95.08c0.764-1.47,2.575-2.043,4.045-1.279c0.993,0.516,1.617,1.543,1.617,2.663v103.474
	c0,0.313-0.049,0.624-0.146,0.922c-0.8,2.479-20.09,61.139-62.6,99.93C646.168,649.345,645.448,649.624,644.7,649.624z"/>
<path fill="#441A36" d="M355.308,649.624c-0.748,0.001-1.47-0.279-2.022-0.784c-42.508-38.791-61.8-97.451-62.6-99.93
	c-0.096-0.298-0.145-0.609-0.145-0.922V444.514c0-1.657,1.343-3,2.999-3.001c1.12,0,2.146,0.623,2.663,1.617l49.43,95.08
	c0.764,1.47,0.192,3.282-1.278,4.046c-1.47,0.764-3.282,0.192-4.046-1.278l-43.768-84.19V547.5
	c1.856,5.477,21.357,60.926,60.788,96.907c1.224,1.117,1.311,3.014,0.194,4.238c-0.569,0.623-1.373,0.978-2.217,0.978
	L355.308,649.624z"/>
</svg>