<?xml version="1.0" encoding="UTF-8"?><svg version="1.1" id="Layer_1" xmlns="http://www.w3.org/2000/svg" xmlns:xlink="http://www.w3.org/1999/xlink" x="0px" y="0px" viewBox="0 0 1000 1000" enable-background="new 0 0 1000 1000" xml:space="preserve" width="1000px" height="1000px">
<ellipse fill="#E4E8EC" cx="495.924" cy="869.82" rx="258.345" ry="45.198"/>
<ellipse transform="matrix(0.7071 -0.7071 0.7071 0.7071 -317.9756 361.8888)" fill="#FFFFFF" cx="277.851" cy="564.775" rx="24.602" ry="100.309"/>
<path fill="#441A36" d="M342.564,640.854c-6.759,0-16.263-3.693-28.415-11.057c-16.882-10.233-36.7-26.393-55.815-45.5
	s-35.272-38.933-45.5-55.815c-11.214-18.5-13.915-30.867-8.029-36.752s18.25-3.185,36.752,8.028
	c16.881,10.232,36.7,26.392,55.815,45.5l0,0c19.111,19.111,35.272,38.934,45.5,55.816c11.213,18.5,13.914,30.866,8.028,36.751
	C348.881,639.846,346.102,640.856,342.564,640.854z M213.108,494.75c-1.462-0.137-2.92,0.299-4.065,1.218
	c-2.557,2.556-1.755,11.79,8.918,29.4c9.99,16.484,25.835,35.9,44.615,54.684s38.2,34.625,54.683,44.614
	c17.61,10.673,26.842,11.474,29.4,8.918s1.755-11.79-8.918-29.4c-9.989-16.482-25.834-35.9-44.614-54.684
	s-38.2-34.625-54.684-44.614C226.043,497.37,217.8,494.75,213.108,494.75z"/>
<path fill="#FFDEC5" d="M563.88,419.61c28.328-18.3,60.593-47.632,80.453-71.459c45.433-54.509,22.869-75.987,16.738-80.275
	c-11.345-7.936-37.246-1.854-58.519,19.959c7.26-8.024,23.964-28.129,28.233-35.224c16.326-27.133,10.2-52.136-2.053-59.49
	c-13.444-8.066-38.248-9.173-72.465,37.882c-36.657,50.409-95.985,94.865-104.394,101c-0.026-0.02-0.053-0.039-0.081-0.058
	c35.247-30.023,93.807-101.733,78.086-146.628c-8.287-23.665-47.081-28.37-73.048,21.786c-21.124,40.8-45.137,76.355-99.137,127.823
	c-6.355-16.132,4.559-48.327,3.11-76.107c-3.11-59.635-44.228-63.879-65.973-56.239c-29.108,10.228,14.587,78.448-16.857,139.067
	c-17.209,33.177-51.028,81.331-12.716,138L144.5,568.229c21.836,56.262,62.9,96.435,116.252,126.319L366.175,592.88
	c37.435,23.45,107.845-30.62,172.285-91.711c49.142-26.389,64.4-34,93.841-48.716c21.276-10.638,50.144-24.058,48.8-40.173
	C678.258,378.22,604.538,394.429,563.88,419.61z"/>
<path fill="#F9C2AF" d="M337.888,273.1c-15.476,71.559,19.805,61.826,19.805,61.826s-3.11-0.193,0-38.15s7.378-80.735-32.236-95.2
	C320.633,219.857,347.6,228.208,337.888,273.1z"/>
<path fill="#F9C2AF" d="M631.351,195.058c2.845,5.785,3.66,17.518-11.279,44.608c-17.52,31.771-109.8,125.427-131.745,127.631
	l10.042,11.62c0,0,120.3-80.185,141.906-152.534C642.031,212.347,637.958,200.865,631.351,195.058z"/>
<path fill="#F9C2AF" d="M661.825,268.432c1.879,8.969-0.357,24.12-13.271,41.847c-54.06,74.208-122.607,112.7-122.607,112.7
	c2.295,4.548,5.606,8.37,9.121,15.252c48.481-28.98,107.459-87.914,109.265-90.08C688.07,295.678,668.794,273.817,661.825,268.432z"/>
<path fill="#F9C2AF" d="M523.747,175.58c-35.42,112.08-96.546,147.811-96.519,147.831c4.373-3.191,12.044,2.672,24.645,8.593
	c46.5-40.241,66.958-83.339,79.366-117.454c1.942-10.438,1.746-20.36-1.361-29.232C528.606,181.646,526.509,178.314,523.747,175.58z
	"/>
<path fill="#F9C2AF" d="M681.1,412.28c-0.888-10.633-8.683-16.366-20.222-18.457c5.482,8.5,6.737,19.835-5.166,25.787
	c-25.392,12.7-85.281,48.977-107.043,48.419c-6.421-0.251-12.696,1.958-17.544,6.175c-63.21,56.274-141.162,107.331-176.631,85.113
	l-106.785,90.518c-42.523-23.817-40.314,14.829,13.041,44.713L366.175,592.88c37.435,23.45,107.845-30.62,172.285-91.711
	c49.142-26.389,64.4-34,93.841-48.716C653.577,441.815,682.445,428.4,681.1,412.28z"/>
<path fill="#441A36" d="M498.372,381.917c-1.657,0.002-3.002-1.34-3.004-2.996c-0.001-1.016,0.512-1.964,1.365-2.519
	c51.06-33.2,103.081-90.017,103.6-90.587c1.123-1.218,3.021-1.295,4.239-0.172c1.208,1.114,1.295,2.992,0.196,4.213
	c-0.524,0.576-53.05,57.95-104.764,91.576C499.519,381.748,498.952,381.917,498.372,381.917z"/>
<path fill="#441A36" d="M387.422,425.98c-1.66-0.003-3.003-1.352-3-3.012c0.001-0.278,0.04-0.554,0.116-0.821
	c6.011-20.84,2.046-55.619-28.911-85.045c-1.214-1.128-1.284-3.026-0.156-4.24c1.128-1.214,3.026-1.284,4.24-0.156
	c0.016,0.015,0.033,0.031,0.049,0.046c11.608,11.106,20.744,24.536,26.81,39.412c7.088,17.677,8.379,35.536,3.734,51.646
	C389.934,425.095,388.759,425.98,387.422,425.98z"/>
<path fill="#441A36" d="M541.465,456.981c-1.191,0.001-2.27-0.703-2.749-1.794c-14.691-33.456-39.7-79.427-75.414-108.442
	c-21.28-17.287-36.48-20.356-36.631-20.386c-1.629-0.304-2.704-1.871-2.4-3.5s1.871-2.704,3.5-2.4
	c0.663,0.123,16.492,3.225,38.85,21.254c36.878,29.738,62.546,76.808,77.585,111.058c0.667,1.517-0.023,3.287-1.539,3.953
	c-0.38,0.167-0.79,0.253-1.206,0.254L541.465,456.981z"/>
<path fill="#441A36" d="M260.749,697.548c-0.513,0-1.018-0.132-1.465-0.383c-58.435-32.728-96.9-74.549-117.583-127.851
	c-0.489-1.264-0.069-2.698,1.023-3.5l118.457-86.893c-33.188-51.527-9.061-95.872,8.627-128.386c1.958-3.6,3.808-7,5.5-10.265
	c16.3-31.43,11.89-64.791,8.344-91.6c-3.2-24.206-5.731-43.326,10.182-48.917c12.065-4.237,30.311-5.177,45.348,4.9
	c18.669,12.511,23.691,36.278,24.616,54.014c0.648,12.436-1.075,25.355-2.741,37.848c-1.66,12.448-3.243,24.321-1.8,32.759
	c51.332-49.489,74.5-84.118,94.906-123.546C468,179,487.863,163.864,507.22,165.232c11.892,0.84,21.659,8.156,25.489,19.1
	c5.037,14.383,5.617,40.193-20.218,81.474c-7.155,11.337-15.065,22.18-23.675,32.456c20.814-18.272,45.939-42.773,65.024-69.019
	c37.248-51.219,63.876-46.225,76.434-38.689c5.735,3.44,10.029,9.889,12.09,18.158c3.415,13.695,0.132,30.261-9.009,45.451
	c-3.449,5.201-7.172,10.215-11.155,15.019c15.506-8.358,31.219-10.323,40.6-3.765c3.051,2.135,10.327,8.432,11.975,20.776
	c2.3,17.232-7.162,38.724-28.128,63.879c-14.373,17.242-33.968,36.092-53.6,51.942c29.138-11.248,61.692-16.431,78.789-7.819
	c7.359,3.706,11.6,9.873,12.265,17.835c1.442,17.287-25.417,30.651-47,41.388l-4.513,2.251
	c-28.425,14.212-44.115,22.057-92.346,47.953c-54.675,51.819-104.623,94.849-153.892,94.853c-6.495,0.006-12.968-0.759-19.282-2.279
	L262.832,696.707C262.273,697.247,261.526,697.549,260.749,697.548z M148.137,569.28c20.123,50.349,56.838,90.145,112.139,121.557
	l103.817-100.115c0.753-0.726,1.83-1.008,2.842-0.743c53.225,13.957,108.239-32.948,169.46-90.987
	c0.194-0.183,0.411-0.34,0.646-0.466c48.585-26.09,64.308-33.952,92.853-48.224l4.524-2.256c18.9-9.4,44.8-22.287,43.693-35.517
	c-0.5-5.936-3.434-10.18-8.985-12.975c-9.744-4.908-26.681-4.918-47.693-0.03c-19.483,4.534-40.409,13-55.974,22.636
	c-1.402,0.883-3.254,0.462-4.137-0.941c-0.88-1.398-0.464-3.245,0.93-4.13c26.847-17.345,58.906-45.821,79.776-70.859
	c13.646-16.371,29.37-39.938,26.791-59.243c-1.334-9.987-7.065-14.972-9.468-16.653c-12.636-8.841-38.461,3-54.652,19.6
	c-1.161,1.182-3.061,1.199-4.242,0.037c-1.144-1.125-1.202-2.951-0.13-4.144c7.125-7.875,23.8-27.968,27.888-34.759
	c8.324-13.835,11.36-28.745,8.328-40.906c-1.65-6.615-5.06-11.887-9.356-14.465c-10.8-6.48-34.059-10.281-68.494,37.074
	c-37.64,51.763-98.263,96.706-105.052,101.66c-1.071,0.781-2.527,0.768-3.583-0.034c-0.735-0.557-1.184-1.413-1.224-2.334
	c-0.042-0.912,0.331-1.794,1.014-2.4c39.573-33.708,91.475-102.58,77.2-143.352c-3.073-8.772-10.642-14.414-20.249-15.093
	c-16.93-1.2-34.605,12.737-47.3,37.267c-21.172,40.9-45.24,76.677-99.73,128.615c-1.199,1.144-3.098,1.099-4.241-0.1
	c-0.268-0.281-0.478-0.611-0.621-0.972c-3.859-9.8-1.973-23.936,0.21-40.308c1.63-12.222,3.315-24.862,2.7-36.742
	c-1.242-23.807-8.631-40.408-21.963-49.343c-13.2-8.842-29.325-7.979-40.021-4.222c-10.788,3.791-9.474,17.885-6.222,42.469
	c3.463,26.183,8.207,62.041-8.965,95.148c-1.722,3.32-3.585,6.744-5.558,10.369c-17.229,31.668-40.823,75.038-7.337,124.569
	c0.903,1.336,0.589,3.147-0.711,4.1L148.137,569.28z"/>
<path fill="#441A36" d="M535.071,441.232c-1.657,0.002-3.002-1.339-3.004-2.996c-0.001-1.02,0.516-1.971,1.372-2.524l28.812-18.622
	c1.391-0.9,3.249-0.501,4.148,0.891s0.501,3.249-0.891,4.148L536.7,440.751C536.215,441.065,535.649,441.232,535.071,441.232z"/>
<path fill="#FF4F7C" d="M206.922,493.847C189.883,526.459,325.275,655.916,348.78,635.7c0,0-63.132,59.055-79.376,74.877
	c-42.233,4.58-148.467-81.87-145.624-154.154L206.922,493.847z"/>
<path fill="#F44275" d="M296.734,614.359c-21.346,20-66.649,62.511-81.109,76.586c20.677,13.426,40.427,21.084,53.779,19.636
	c16.244-15.822,79.376-74.881,79.376-74.881C340.827,642.543,320.064,632.238,296.734,614.359z"/>
<path fill="#441A36" d="M266.1,713.753c-21.539,0-55.49-18.435-86.255-47.154c-17.475-16.314-32.113-34.361-42.331-52.19
	c-11.806-20.6-17.434-40.147-16.729-58.1c0.036-0.9,0.474-1.737,1.194-2.279l83.143-62.58c1.324-0.996,3.205-0.731,4.201,0.593
	c0.696,0.925,0.798,2.167,0.262,3.193c-9.444,18.076,38.728,76.913,84.91,113.576c31.071,24.667,47.611,28.676,52.332,24.618
	c1.256-1.081,3.15-0.939,4.231,0.317c1.049,1.219,0.95,3.049-0.225,4.148c-0.632,0.59-63.3,59.214-79.331,74.835
	c-0.481,0.468-1.104,0.761-1.771,0.833C268.525,713.692,267.313,713.755,266.1,713.753z M126.74,557.953
	c-0.564,31.354,20.716,70.2,57.2,104.256c30.335,28.319,64.693,46.837,84.142,45.476c13.538-13.131,54.085-51.164,71.057-67.063
	c-9.456-1.189-24.486-8.149-48.373-27.114c-38.832-30.827-87.683-84.639-88.267-112.576L126.74,557.953z"/>
<circle fill="#DCF8FF" cx="382.995" cy="300.229" r="55.531"/>
<path fill="#A3ECFD" d="M405.788,249.6c16.709,22.495,12.018,54.276-10.477,70.985c-19.908,14.787-47.588,13.017-65.45-4.185
	c8.926,29.342,39.949,45.893,69.291,36.967c29.342-8.926,45.893-39.949,36.967-69.291
	C431.456,268.746,420.398,256.178,405.788,249.6L405.788,249.6z"/>
<path fill="#441A36" d="M383,358.76c-32.326,0.001-58.531-26.204-58.532-58.53c-0.001-32.326,26.204-58.531,58.53-58.532
	s58.531,26.204,58.532,58.53c0,0,0,0.001,0,0.001C441.492,332.539,415.31,358.721,383,358.76z M383,247.7
	c-29.012-0.001-52.531,23.518-52.532,52.53c-0.001,29.012,23.518,52.531,52.53,52.532c29.012,0.001,52.531-23.518,52.532-52.53
	c0-0.001,0-0.001,0-0.002C435.497,271.232,411.998,247.733,383,247.7z"/>
<path fill="#FFFFFF" d="M354.838,331.387c-0.796,0.001-1.559-0.315-2.121-0.879c-8.063-8.01-12.586-18.913-12.561-30.279
	c0-1.657,1.343-3,3-3s3,1.343,3,3c-0.021,9.773,3.867,19.148,10.8,26.037c1.171,1.172,1.171,3.071-0.001,4.243
	c-0.562,0.562-1.325,0.878-2.12,0.878H354.838z"/>
<circle fill="#DCF8FF" cx="433.235" cy="402.327" r="70.777"/>
<path fill="#A3ECFD" d="M462.286,337.79c21.29,28.676,15.302,69.181-13.374,90.471c-25.37,18.835-60.636,16.579-83.399-5.335
	c11.373,37.4,50.912,58.499,88.312,47.126c37.4-11.373,58.5-50.912,47.126-88.312C495.008,362.197,480.912,346.175,462.286,337.79
	L462.286,337.79z"/>
<path fill="#441A36" d="M433.235,476.1c-40.746,0-73.778-33.032-73.778-73.778s33.032-73.778,73.778-73.778
	s73.778,33.032,73.778,73.778c0,0,0,0.001,0,0.001C506.967,443.05,473.962,476.054,433.235,476.1z M433.235,334.545
	c-37.433,0-67.778,30.345-67.778,67.778s30.345,67.778,67.778,67.778s67.778-30.345,67.778-67.778v0
	c-0.044-37.414-30.364-67.732-67.778-67.774V334.545z"/>
<path fill="#FFFFFF" d="M397.347,441.215c-0.796,0.001-1.56-0.315-2.122-0.879c-10.121-10.056-15.798-23.742-15.767-38.009
	c0-1.657,1.343-3,3-3s3,1.343,3,3c-0.027,12.675,5.018,24.834,14.01,33.767c1.171,1.172,1.171,3.071-0.001,4.243
	C398.905,440.899,398.142,441.215,397.347,441.215z"/>
<ellipse transform="matrix(0.1602 -0.9871 0.9871 0.1602 147.8518 740.431)" fill="#DCF8FF" cx="509.062" cy="283.326" rx="46.197" ry="46.197"/>
<path fill="#A3ECFD" d="M528.023,241.2c13.897,18.716,9.99,45.154-8.727,59.051c-16.559,12.295-39.579,10.823-54.437-3.482
	c7.423,24.412,33.23,38.185,57.642,30.762c24.412-7.422,38.185-33.23,30.762-57.642C549.384,257.132,540.182,246.673,528.023,241.2z
	"/>
<path fill="#441A36" d="M509.061,332.522c-27.172,0-49.2-22.028-49.2-49.2c0-27.172,22.028-49.2,49.2-49.2
	c27.172,0,49.2,22.028,49.2,49.2l0,0C558.233,310.483,536.222,332.494,509.061,332.522z M509.061,240.129
	c-23.859,0-43.2,19.341-43.2,43.2c0,23.859,19.341,43.2,43.2,43.2c23.859,0,43.2-19.341,43.2-43.2l0,0
	C552.236,259.481,532.909,240.154,509.061,240.129z"/>
<path fill="#FFFFFF" d="M485.638,309.75c-0.796,0-1.559-0.315-2.122-0.878c-6.803-6.758-10.62-15.957-10.6-25.546
	c0-1.657,1.343-3,3-3s3,1.343,3,3c-0.017,7.996,3.167,15.666,8.84,21.3c1.172,1.171,1.173,3.071,0.001,4.243
	c-0.563,0.563-1.326,0.879-2.122,0.879L485.638,309.75z"/>
<circle fill="#DCF8FF" cx="312.247" cy="459.395" r="41.194"/>
<path fill="#A3ECFD" d="M329.155,421.833c12.392,16.689,8.908,40.264-7.781,52.656c-14.766,10.964-35.294,9.651-48.543-3.105
	c6.615,21.771,29.627,34.057,51.399,27.442c21.771-6.615,34.057-29.627,27.442-51.399
	C348.213,436.045,340.004,426.714,329.155,421.833z"/>
<path fill="#441A36" d="M312.247,503.589c-24.408,0-44.194-19.786-44.194-44.194s19.786-44.194,44.194-44.194
	s44.194,19.786,44.194,44.194c0,0.002,0,0.003,0,0.005C356.411,483.794,336.641,503.561,312.247,503.589z M312.247,421.201
	c-21.094,0-38.194,17.1-38.194,38.194s17.1,38.194,38.194,38.194c21.092,0,38.191-17.097,38.194-38.189
	C350.421,438.313,333.334,421.223,312.247,421.201L312.247,421.201z"/>
<path fill="#FFFFFF" d="M291.359,483.282c-0.796,0.001-1.559-0.315-2.121-0.878c-6.127-6.087-9.564-14.372-9.545-23.009
	c0-1.657,1.343-3,3-3s3,1.343,3,3c-0.015,7.044,2.789,13.802,7.787,18.766c1.171,1.172,1.171,3.071-0.001,4.243
	C292.917,482.966,292.154,483.282,291.359,483.282L291.359,483.282z"/>
<circle fill="#DCF8FF" cx="213.652" cy="346.189" r="28.164"/>
<path fill="#A3ECFD" d="M225.212,320.508c8.477,11.407,6.102,27.526-5.305,36.003c-10.1,7.506-24.147,6.606-33.207-2.126
	c4.525,14.883,20.258,23.28,35.141,18.755c14.883-4.525,23.28-20.258,18.755-35.141c-2.365-7.778-7.974-14.154-15.387-17.491
	H225.212z"/>
<path fill="#441A36" d="M213.652,377.353c-17.212,0.001-31.165-13.952-31.166-31.164s13.952-31.165,31.164-31.166
	c17.212-0.001,31.165,13.952,31.166,31.164c0,0,0,0.001,0,0.001C244.797,363.392,230.856,377.333,213.652,377.353z M213.652,321.024
	c-13.898-0.001-25.165,11.266-25.166,25.164s11.266,25.165,25.164,25.166c13.898,0.001,25.165-11.266,25.166-25.164
	c0-0.001,0-0.001,0-0.002C238.801,332.297,227.543,321.039,213.652,321.024z"/>
<path fill="#FFFFFF" d="M199.371,363.469c-0.796,0.001-1.559-0.315-2.121-0.879c-4.366-4.339-6.814-10.245-6.8-16.4
	c0-1.657,1.343-3,3-3s3,1.343,3,3c-0.009,4.565,1.808,8.943,5.046,12.16c1.171,1.172,1.171,3.071-0.001,4.243
	c-0.562,0.562-1.325,0.878-2.12,0.878L199.371,363.469z"/>
<circle fill="#DCF8FF" cx="224.573" cy="204.87" r="14.082"/>
<path fill="#A3ECFD" d="M230.353,192.029c4.231,5.709,3.033,13.768-2.676,17.999c-5.044,3.739-12.05,3.291-16.577-1.06
	c2.263,7.441,10.129,11.64,17.571,9.377s11.64-10.129,9.377-17.571c-1.182-3.889-3.987-7.077-7.694-8.745H230.353z"/>
<path fill="#441A36" d="M224.573,221.952c-9.434,0-17.082-7.648-17.082-17.082s7.648-17.082,17.082-17.082
	s17.082,7.648,17.082,17.082C241.645,214.3,234.003,221.942,224.573,221.952z M224.573,193.788c-6.12,0-11.082,4.962-11.082,11.082
	s4.962,11.082,11.082,11.082s11.082-4.962,11.082-11.082C235.648,198.753,230.69,193.795,224.573,193.788z"/>
<circle fill="#DCF8FF" cx="641.506" cy="213.709" r="30.329"/>
<path fill="#A3ECFD" d="M653.955,186.054c9.119,12.291,6.548,29.648-5.743,38.768c-10.869,8.064-25.973,7.098-35.726-2.286
	c4.873,16.027,21.816,25.068,37.843,20.195s25.068-21.816,20.195-37.843C667.978,196.513,661.937,189.647,653.955,186.054z"/>
<path fill="#441A36" d="M641.506,247.038c-18.407,0-33.329-14.922-33.329-33.329c0-18.407,14.922-33.329,33.329-33.329
	c18.407,0,33.329,14.922,33.329,33.329v0C674.815,232.108,659.905,247.018,641.506,247.038z M641.506,186.38
	c-15.093,0-27.329,12.236-27.329,27.329c0,15.093,12.236,27.329,27.329,27.329s27.329-12.236,27.329-27.329c0,0,0,0,0,0
	C668.818,198.623,656.592,186.397,641.506,186.38L641.506,186.38z"/>
<path fill="#FFFFFF" d="M626.127,232.087c-0.796,0.001-1.559-0.315-2.121-0.879c-4.66-4.63-7.274-10.931-7.259-17.5
	c0-1.657,1.343-3,3-3s3,1.343,3,3c-0.01,4.976,1.97,9.75,5.5,13.257c1.171,1.172,1.171,3.071-0.001,4.243
	C627.684,231.77,626.921,232.086,626.127,232.087L626.127,232.087z"/>
<circle fill="#DCF8FF" cx="552.302" cy="628.28" r="20.736"/>
<path fill="#A3ECFD" d="M560.813,609.372c6.238,8.401,4.485,20.268-3.915,26.506c-7.433,5.52-17.767,4.859-24.437-1.563
	c3.332,10.957,14.916,17.139,25.873,13.806c10.957-3.332,17.138-14.916,13.806-25.873C570.4,616.523,566.27,611.828,560.813,609.372
	z"/>
<path fill="#441A36" d="M552.3,652.016c-13.109,0-23.736-10.627-23.736-23.736s10.627-23.736,23.736-23.736
	c13.109,0,23.735,10.626,23.736,23.735C576.021,641.382,565.403,652.001,552.3,652.016z M552.3,610.544
	c-9.795,0-17.736,7.941-17.736,17.736s7.941,17.736,17.736,17.736c9.795,0,17.736-7.941,17.736-17.736c0,0,0-0.001,0-0.001
	C570.025,618.488,562.091,610.554,552.3,610.544z"/>
<path fill="#FFFFFF" d="M541.788,641.794c-0.796,0.001-1.559-0.315-2.121-0.878c-3.365-3.343-5.252-7.894-5.241-12.637
	c0-1.657,1.343-3,3-3s3,1.343,3,3c-0.007,3.151,1.247,6.173,3.483,8.393c1.172,1.171,1.173,3.071,0.001,4.243
	C543.348,641.478,542.584,641.794,541.788,641.794z"/>
<circle fill="#DCF8FF" cx="451.707" cy="207" r="30.329"/>
<path fill="#A3ECFD" d="M464.156,179.345c9.124,12.287,6.561,29.644-5.726,38.769c-10.872,8.074-25.988,7.107-35.743-2.287
	c4.873,16.027,21.816,25.068,37.843,20.195c16.027-4.873,25.068-21.816,20.195-37.843
	C478.179,189.804,472.138,182.938,464.156,179.345z"/>
<path fill="#441A36" d="M451.708,240.329c-18.407,0-33.329-14.922-33.329-33.329c0-18.407,14.922-33.329,33.329-33.329
	c18.407,0,33.329,14.922,33.329,33.329v0C485.017,225.399,470.107,240.309,451.708,240.329z M451.708,179.671
	c-15.093,0-27.329,12.236-27.329,27.329c0,15.093,12.236,27.329,27.329,27.329c15.093,0,27.329-12.236,27.329-27.329v0
	C479.02,191.914,466.794,179.688,451.708,179.671L451.708,179.671z"/>
<path fill="#FFFFFF" d="M436.329,221.952c-0.796,0.001-1.559-0.315-2.121-0.879c-3.748-3.723-5.85-8.79-5.838-14.073
	c0-1.657,1.343-3,3-3s3,1.343,3,3c-0.008,3.69,1.462,7.23,4.08,9.83c1.172,1.171,1.173,3.071,0.001,4.243
	C437.889,221.636,437.125,221.952,436.329,221.952L436.329,221.952z"/>
<circle fill="#DCF8FF" cx="484.447" cy="478.507" r="95.348"/>
<path fill="#A3ECFD" d="M523.583,391.566c28.675,38.636,20.601,93.202-18.035,121.878c-34.174,25.363-81.671,22.325-112.334-7.187
	c15.321,50.384,68.586,78.808,118.97,63.487c50.384-15.321,78.808-68.586,63.487-118.97
	C567.665,424.447,548.675,402.862,523.583,391.566z"/>
<path fill="#441A36" d="M484.447,576.855c-54.316,0-98.348-44.032-98.348-98.348c0-54.316,44.032-98.348,98.348-98.348
	c54.316,0,98.348,44.032,98.348,98.348c0,0,0,0,0,0C582.733,532.797,538.737,576.793,484.447,576.855z M484.447,386.155
	c-51.002,0-92.348,41.346-92.348,92.348s41.346,92.348,92.348,92.348s92.348-41.346,92.348-92.348l0,0
	c-0.06-50.977-41.371-92.287-92.348-92.344V386.155z"/>
<path fill="#FFFFFF" d="M436.1,529.854c-0.796,0.001-1.559-0.316-2.121-0.879c-13.439-13.352-20.978-31.525-20.936-50.469
	c0-1.657,1.343-3,3-3s3,1.343,3,3c-0.037,17.352,6.869,33.997,19.179,46.226c1.172,1.171,1.173,3.071,0.001,4.243
	C437.66,529.538,436.896,529.854,436.1,529.854L436.1,529.854z"/>
<circle fill="#DCF8FF" cx="603.315" cy="462.995" r="49.855"/>
<path fill="#A3ECFD" d="M623.779,417.535c14.988,20.206,10.758,48.736-9.447,63.724c-17.866,13.252-42.69,11.663-58.72-3.759
	c8.012,26.344,35.863,41.205,62.207,33.193c26.344-8.012,41.205-35.863,33.193-62.207c-4.186-13.764-14.114-25.049-27.233-30.956
	V417.535z"/>
<path fill="#441A36" d="M603.315,515.85c-29.191-0.001-52.855-23.665-52.854-52.856c0.001-29.191,23.665-52.855,52.856-52.854
	c29.191,0.001,52.855,23.665,52.854,52.856c0,0.001,0,0.003,0,0.004C656.136,492.176,632.491,515.818,603.315,515.85z
	 M603.315,416.14c-25.877,0.001-46.855,20.979-46.854,46.856c0.001,25.877,20.979,46.855,46.856,46.854
	c25.875-0.001,46.851-20.975,46.854-46.85C650.145,437.132,629.183,416.168,603.315,416.14L603.315,416.14z"/>
<path fill="#FFFFFF" d="M578.036,491.274c-0.796,0.001-1.559-0.315-2.121-0.879c-7.295-7.247-11.388-17.112-11.366-27.395
	c0-1.657,1.343-3,3-3s3,1.343,3,3c-0.019,8.693,3.441,17.032,9.608,23.158c1.171,1.172,1.171,3.071-0.001,4.243
	c-0.562,0.562-1.325,0.878-2.12,0.878V491.274z"/>
<ellipse transform="matrix(0.7071 -0.7071 0.7071 0.7071 -114.6733 500.7242)" fill="#DCF8FF" cx="547.091" cy="388.785" rx="70.777" ry="70.777"/>
<path fill="#A3ECFD" d="M576.142,324.248c21.29,28.676,15.302,69.181-13.374,90.471c-25.37,18.835-60.636,16.579-83.399-5.335
	c11.373,37.4,50.912,58.499,88.312,47.126c37.4-11.373,58.5-50.912,47.126-88.312C608.865,348.655,594.768,332.633,576.142,324.248z
	"/>
<path fill="#441A36" d="M547.092,462.562c-40.746,0-73.777-33.031-73.777-73.777c0-40.746,33.031-73.777,73.777-73.777
	c40.746,0,73.777,33.031,73.777,73.777c0,0,0,0,0,0C620.823,429.512,587.819,462.516,547.092,462.562z M547.092,321.008
	c-37.432,0-67.777,30.345-67.777,67.777c0,37.432,30.345,67.777,67.777,67.777c37.432,0,67.777-30.345,67.777-67.777l0,0
	C614.826,351.371,584.506,321.051,547.092,321.008z"/>
<path fill="#FFFFFF" d="M511.2,427.673c-0.796,0.001-1.559-0.315-2.121-0.879c-10.122-10.055-15.8-23.742-15.769-38.009
	c0-1.657,1.343-3,3-3s3,1.343,3,3c-0.027,12.675,5.018,24.834,14.011,33.767c1.171,1.172,1.171,3.071-0.001,4.243
	C512.758,427.357,511.995,427.673,511.2,427.673L511.2,427.673z"/>
<ellipse transform="matrix(0.7761 -0.6306 0.6306 0.7761 -260.0422 601.3651)" fill="#FFFFFF" cx="716.895" cy="666.906" rx="100.309" ry="24.602"/>
<path fill="#441A36" d="M646.862,736.028c-4.6,0-7.982-1.326-10.146-3.977c-5.249-6.46-1.289-18.482,11.768-35.731
	c11.915-15.74,30.03-33.794,51.006-50.837l0,0c20.977-17.043,42.357-31.077,60.2-39.517c19.557-9.25,32.134-10.663,37.382-4.2
	s1.289,18.48-11.768,35.729c-11.916,15.74-30.03,33.794-51.006,50.837s-42.358,31.077-60.2,39.518
	C662.572,733.3,653.469,736.028,646.862,736.028z M703.273,650.14c-46.792,38.017-67.589,71.127-61.9,78.128
	s42.354-6.579,89.145-44.6c20.614-16.748,38.373-34.435,50.005-49.8c12.429-16.417,14.176-25.519,11.9-28.325
	c-5.687-7-42.354,6.579-89.146,44.6L703.273,650.14z"/>
<path fill="#FFDEC5" d="M602,369.37c-15.29-30.061-41.144-65.173-62.8-87.38c-49.543-50.8-73.23-30.568-78.126-24.911
	c-9.061,10.468-5.677,36.858,13.831,60.263c-7.234-8.047-25.513-26.732-32.131-31.708c-25.309-19.032-50.809-15.516-59.386-4.081
	c-9.407,12.542-13.06,37.1,30.223,75.979c46.369,41.65,84.483,105.239,89.721,114.234l-0.066,0.074
	c-26.236-38.149-91.539-103.777-137.813-92.761c-24.393,5.807-33.065,43.912,14.153,74.9c38.414,25.211,71.3,52.756,116.941,111.766
	c-16.7,4.661-47.6-9.509-75.382-10.926c-59.639-3.044-68.092,37.419-62.73,59.835c7.177,30.006,79.532-6.437,136.593,31.079
	c31.229,20.532,75.647,59.127,135.957,26.851l75.684,129.235c58.211-15.93,102.4-52.639,137.612-102.635L754,583.858
	c27.178-34.823-19.359-110.424-73.494-180.809c-21.192-51.6-27.187-67.557-38.8-98.356c-8.392-22.258-15.686-53.664-34.938-52.676
	C565.526,254.136,581.134,326.336,602,369.37z"/>
<path fill="#FFFFFF" stroke="#441A36" stroke-width="6" stroke-linecap="round" stroke-linejoin="round" d="M403.479,625.6
	c0,0,0.042-7.906,0.02-16.3c-0.011-2.716-1.967-5.033-4.642-5.5c-12-2.11-24.7-2.86-28.554,2.324
	c-2.864,3.849-1.806,17.324-1.806,17.324C376.718,626.506,389.855,626.219,403.479,625.6z"/>
<path fill="#F9C2AF" d="M385.522,277.233c6.047-2.234,17.8-1.837,43.21,15.81c29.8,20.7,92.545,110.526,100.3,124.555
	c12.023,21.743,25.683,10.833,25.683,10.833S487.34,300.521,417.6,271.58C403.818,268.389,391.977,271.259,385.522,277.233z"/>
<path fill="#F9C2AF" d="M461.642,254.473c9.115-0.946,23.955,2.837,40.259,17.507c68.25,61.409,78.847,110.763,97.1,128.331
	c3.67,3.533,11.29,0.508,18.5-2.28c-23.837-51.206-76.388-115.936-78.357-117.955C491.444,231.171,467.716,248.094,461.642,254.473z
	"/>
<path fill="#F9C2AF" d="M355.073,382.261c107.84,46.767,121.548,87.552,127.451,90.755s13.559,8.76,20.745-3.164
	c-35.242-50.391-76.006-75.179-108.662-91.033c-10.183-3-20.072-3.831-29.217-1.654
	C361.606,378.052,358.077,379.795,355.073,382.261z"/>
<path fill="#F9C2AF" d="M606.769,252.017c-10.667-0.211-0.076,11.641,4.619,24.093c10.016,26.565,39.941,89.869,37.146,111.458
	c-0.827,6.389,5.214,23.236,8.98,28.463c49.47,68.666,77.543,140.59,61.551,170.509c-16.5,30.864,66.5,122.8,66.5,122.8
	C757.5,749.19,809,747.268,844.219,697.271l-90.278-115.328c27.178-34.822-19.359-110.423-73.494-180.809
	c-21.192-51.6-27.187-67.556-38.8-98.356C633.256,280.521,622.938,252.338,606.769,252.017z"/>
<path fill="#441A36" d="M554.722,431.431c-1.127,0.001-2.159-0.63-2.673-1.633c-27.77-54.2-78.931-111.8-79.445-112.373
	c-1.105-1.236-0.998-3.134,0.238-4.238s3.134-0.998,4.238,0.238c0.518,0.581,52.183,58.733,80.308,113.633
	c0.756,1.475,0.173,3.282-1.302,4.038c-0.422,0.216-0.89,0.33-1.365,0.33V431.431z"/>
<path fill="#441A36" d="M706.606,802.906c-1.065,0-2.051-0.565-2.589-1.484l-74.24-126.771c-54.67,27.708-96.3-0.853-126.817-21.8
	c-3.378-2.317-6.569-4.506-9.644-6.528c-29.584-19.451-63.226-18.5-90.252-17.725c-24.41,0.691-43.685,1.242-47.61-15.162
	c-2.975-12.436-2.03-30.685,9.54-44.6c14.365-17.281,38.511-19.833,56.261-18.926c12.437,0.635,25.111,3.678,37.367,6.621
	c12.211,2.932,23.85,5.737,32.4,5.161c-43.941-56.152-76-82.756-113.122-107.117c-25.157-16.512-38.172-37.8-34.817-56.939
	c2.059-11.743,10.342-20.705,21.617-23.389c14.823-3.53,40.557-1.452,78.96,28.5c10.542,8.285,20.515,17.269,29.851,26.893
	c-16.032-22.583-37.818-50.1-61.964-71.786c-47.113-42.318-39.405-68.294-30.618-80.011c4.012-5.349,10.869-8.956,19.306-10.156
	c13.971-1.989,30.114,2.984,44.283,13.639c4.821,3.967,9.428,8.188,13.8,12.645c-6.717-16.282-7.055-32.114,0.434-40.765
	c2.437-2.816,9.448-9.4,21.9-9.775c17.4-0.5,37.782,11.109,60.645,34.554c14.912,15.292,30.783,35.435,44.129,55.581
	c-8.4-27.436-11.4-55.411-2.068-71.131c4.887-8.236,12.67-12.668,23.128-13.172c18.381-0.9,27.457,23.844,35.463,45.662
	c0.848,2.31,1.684,4.589,2.517,6.8l0.41,1.087c11.214,29.743,17.4,46.162,38.206,96.816c51.917,67.522,93.279,127.866,74.26,181.781
	l89.251,114.017c0.816,1.042,0.853,2.495,0.091,3.577C808.1,753.755,762.547,787.708,707.4,802.8
	C707.141,802.871,706.874,802.906,706.606,802.906z M630.921,667.672c1.066-0.001,2.052,0.564,2.591,1.484L708.027,796.4
	c52.152-14.835,95.516-47.261,132.451-99.036l-88.9-113.567c-0.643-0.823-0.812-1.922-0.446-2.9
	c19.368-51.523-21.632-111.065-73.063-177.934c-0.164-0.211-0.298-0.443-0.4-0.689c-20.957-51.027-27.16-67.481-38.422-97.35
	l-0.41-1.087c-0.839-2.227-1.682-4.522-2.535-6.849c-7.294-19.879-15.548-42.4-29.541-41.736
	c-8.438,0.407-14.411,3.757-18.259,10.242c-11.8,19.887-0.819,65.688,16.132,100.653c0.716,1.494,0.085,3.286-1.41,4.002
	c-1.464,0.701-3.22,0.111-3.963-1.333c-14.492-28.49-39.517-63.31-62.274-86.645c-14.879-15.258-36.722-33.35-56.172-32.746
	c-10.071,0.3-15.62,5.487-17.538,7.7c-10.095,11.662-0.979,38.567,13.867,56.379c1.072,1.263,0.918,3.156-0.345,4.229
	c-1.246,1.058-3.11,0.924-4.191-0.302c-7.1-7.9-25.372-26.556-31.7-31.316c-12.9-9.7-27.419-14.258-39.833-12.494
	c-6.749,0.959-12.345,3.808-15.35,7.815c-7.557,10.077-13.731,32.822,29.828,71.947c47.621,42.775,86.081,107.7,90.309,114.956
	c0.662,1.137,0.506,2.573-0.385,3.541c-0.629,0.681-1.527,1.047-2.453,1c-0.915-0.05-1.758-0.512-2.293-1.256
	c-29.456-42.832-92.605-101.548-134.646-91.543c-9.041,2.153-15.433,9.1-17.1,18.589c-2.929,16.708,9.109,35.731,32.2,50.887
	c38.5,25.269,71.616,52.892,117.668,112.439c1.014,1.311,0.773,3.195-0.537,4.208c-0.306,0.237-0.656,0.412-1.029,0.516
	c-10.142,2.827-24.01-0.5-40.069-4.358c-11.992-2.879-24.391-5.856-36.274-6.463c-23.807-1.215-41.082,4.427-51.34,16.769
	c-10.154,12.217-10.955,28.35-8.318,39.373c2.66,11.122,16.816,11.268,41.6,10.56c26.4-0.751,62.556-1.78,93.72,18.709
	c3.124,2.055,6.339,4.26,9.741,6.6c29.727,20.4,70.441,48.329,123.153,20.118C629.937,667.794,630.425,667.672,630.921,667.672z"/>
<path fill="#441A36" d="M617.5,401.031c-1.13,0.001-2.164-0.633-2.676-1.64l-15.557-30.575c-0.777-1.463-0.221-3.279,1.242-4.057
	c1.463-0.777,3.279-0.221,4.057,1.242c0.017,0.031,0.033,0.063,0.048,0.095l15.558,30.574c0.752,1.477,0.164,3.283-1.312,4.035
	C618.438,400.919,617.972,401.031,617.5,401.031L617.5,401.031z"/>
<path fill="#FF4F7C" d="M639.043,730.159c30.686,20.3,173.39-101.046,155.7-126.506c0,0,52.244,68.874,66.31,86.66
	c0.209,42.481-96.714,139.253-168.322,128.987L639.043,730.159z"/>
<path fill="#F44275" d="M768.159,653.226c17.7,23.291,55.32,72.729,67.832,88.56c15.482-19.185,25.132-38.042,25.066-51.473
	c-14.066-17.785-66.31-86.66-66.31-86.66C800.731,612.267,788.344,631.86,768.159,653.226z"/>
<path fill="#441A36" d="M703.7,823.065c-3.811,0.004-7.617-0.263-11.39-0.8c-0.892-0.129-1.678-0.651-2.144-1.422l-53.691-89.141
	c-0.855-1.419-0.397-3.263,1.022-4.118c0.991-0.597,2.238-0.571,3.203,0.068c17.014,11.259,80.492-30.608,121.713-72.771
	c27.733-28.368,33.424-44.407,29.871-49.521c-0.96-1.35-0.645-3.223,0.706-4.184c1.332-0.947,3.177-0.654,4.149,0.659
	c0.521,0.688,52.385,69.054,66.273,86.612c0.416,0.526,0.643,1.176,0.647,1.847c0.1,21.333-22.387,55.322-55.969,84.577
	c-18.026,15.7-37.482,28.4-56.268,36.734C734.634,819.23,718.5,823.065,703.7,823.065z M694.561,816.516
	c31.13,3.789,71.956-13.38,109.587-46.163c31.291-27.26,53.243-59.517,53.9-79.017c-11.668-14.818-45.325-59.064-59.394-77.582
	c-2.157,9.284-10.627,23.518-31.947,45.326c-34.657,35.45-93.179,78.491-121.063,76.213L694.561,816.516z"/>
<path fill="#FFFFFF" stroke="#441A36" stroke-width="6" stroke-linecap="round" stroke-linejoin="round" d="M381.506,388.88
	c-8.089-1.354-23.13,1.894-22.024,19.22c0.66,10.344,12.346,18.779,19.018,22.777c2.476,1.487,5.688,0.703,7.2-1.758l15.509-25.2
	c1.434-2.315,0.86-5.342-1.321-6.973C394.47,392.866,388.177,390.105,381.506,388.88z"/>
<path fill="#FFFFFF" stroke="#441A36" stroke-width="6" stroke-linecap="round" stroke-linejoin="round" d="M496.042,263.231
	c-6.911-2.82-20.916-2.944-23.4,12.661c-1.483,9.317,7.206,19.142,12.331,24.026c1.901,1.815,4.908,1.761,6.742-0.121l18.81-19.276
	c1.737-1.769,1.833-4.573,0.221-6.457C506.752,269.36,501.718,265.651,496.042,263.231z"/>
<path fill="#FFFFFF" stroke="#441A36" stroke-width="6" stroke-linecap="round" stroke-linejoin="round" d="M619.443,274.683
	c-2.987-4.951-11.435-12.966-20.2-4.423c-5.234,5.1-4.579,16.681-3.657,22.086c0.34,2.007,2.234,3.366,4.244,3.046l20.607-3.265
	c1.898-0.294,3.256-1.991,3.126-3.907C623.26,283.449,621.849,278.814,619.443,274.683z"/>
<path fill="#FFFFFF" stroke="#441A36" stroke-width="6" stroke-linecap="round" stroke-linejoin="round" d="M416.628,283.87
	c-7.682-2.871-23.1-0.9-25.282,14.671c-1.156,8.234,5.277,17.311,11.006,23.581c3.924,4.299,10.59,4.603,14.889,0.678
	c0.197-0.18,0.387-0.367,0.57-0.561l13.833-14.7c3.989-4.223,3.799-10.881-0.424-14.87c-0.195-0.184-0.397-0.361-0.606-0.53
	C426.413,288.669,421.694,285.878,416.628,283.87z"/>
</svg>