<svg xmlns="http://www.w3.org/2000/svg" viewBox="0 0 400 300" width="0" height="0" class="illustration styles_illustrationTablet__1DWOa"><g id="_444_wearing_a_mask_outline" data-name="#444_wearing_a_mask_outline"><path d="M233.65,236.05V202.39a27.22,27.22,0,0,0-27.22-27.21h-26a27.22,27.22,0,0,0-27.22,27.21v33.66Z" fill="#68e1fd"></path><path d="M233.65,237.05H153.22a1,1,0,0,1-1-1V202.39a28.24,28.24,0,0,1,28.22-28.21h26a28.24,28.24,0,0,1,28.22,28.21v33.66A1,1,0,0,1,233.65,237.05Zm-79.43-2h78.43V202.39a26.24,26.24,0,0,0-26.22-26.21h-26a26.24,26.24,0,0,0-26.22,26.21Z" fill="#093f68"></path><polygon points="193.44 207.88 187.3 178.75 200.63 179.12 193.44 207.88" fill="#fff"></polygon><path d="M193.44,208.88h0a1,1,0,0,1-1-.79L186.32,179a1,1,0,0,1,.22-.85,1,1,0,0,1,.79-.36l13.33.37a1,1,0,0,1,.77.39,1,1,0,0,1,.17.85l-7.19,28.76A1,1,0,0,1,193.44,208.88Zm-4.9-29.09,5,23.64,5.84-23.35Z" fill="#093f68"></path><path d="M190,64.34A32.14,32.14,0,0,1,195.1,64c7.86,0,15.89-.2,23.06,3.3a43.61,43.61,0,0,1,24.28,38.86v32.22H146.56c-.55-1.9.3-4.13.38-6a26,26,0,0,0-.93-6.22,87.49,87.49,0,0,1-1.89-16c-.12-8.57,1.95-16.71,5.17-24.56,1.91-4.66,4.16-9.49,8.28-12.39s10.64-3,13.57,1.09A32.79,32.79,0,0,1,190,64.34Z" fill="#725858"></path><path d="M242.44,139.33H146.56a1,1,0,0,1-1-.73,10,10,0,0,1,.08-4.4,14.73,14.73,0,0,0,.26-1.93,17.09,17.09,0,0,0-.62-4.6c-.1-.46-.2-.92-.29-1.38a87.43,87.43,0,0,1-1.91-16.15c-.11-7.92,1.6-16.08,5.24-25,1.89-4.59,4.26-9.75,8.63-12.83,4.09-2.89,10.62-3.29,14.2.42a33.73,33.73,0,0,1,18.67-9.43h0a33.12,33.12,0,0,1,5.24-.4h1.4c7.45,0,15.14,0,22.1,3.41a44.52,44.52,0,0,1,24.84,39.75v32.22A1,1,0,0,1,242.44,139.33Zm-95.05-2h94.05V106.11a42.53,42.53,0,0,0-23.71-38c-6.55-3.2-14-3.2-21.23-3.2h-1.4a28.39,28.39,0,0,0-4.93.38h0A31.63,31.63,0,0,0,171.87,75a1,1,0,0,1-.8.32,1,1,0,0,1-.75-.41c-2.65-3.71-8.54-3.43-12.18-.87-3.92,2.78-6.07,7.43-7.93,12-3.53,8.61-5.2,16.51-5.09,24.16A85.93,85.93,0,0,0,147,125.89c.09.45.19.9.29,1.34a19.55,19.55,0,0,1,.66,5.13,18.06,18.06,0,0,1-.28,2.18A11.36,11.36,0,0,0,147.39,137.33Z" fill="#093f68"></path><path d="M186.95,170h13.68a0,0,0,0,1,0,0v7.87a5.81,5.81,0,0,1-5.81,5.81h-2.06a5.81,5.81,0,0,1-5.81-5.81V170A0,0,0,0,1,186.95,170Z" fill="#ffc9b0"></path><path d="M194.82,184.66h-2.06a6.81,6.81,0,0,1-6.81-6.81V170a1,1,0,0,1,1-1h13.68a1,1,0,0,1,1,1v7.87A6.81,6.81,0,0,1,194.82,184.66ZM188,171v6.87a4.82,4.82,0,0,0,4.81,4.81h2.06a4.82,4.82,0,0,0,4.81-4.81V171Z" fill="#093f68"></path><ellipse cx="154.69" cy="134.44" rx="13.29" ry="11.45" fill="#ffc9b0"></ellipse><path d="M154.69,146.89c-7.88,0-14.29-5.58-14.29-12.45S146.81,122,154.69,122,169,127.57,169,134.44,162.57,146.89,154.69,146.89Zm0-22.9c-6.78,0-12.29,4.69-12.29,10.45s5.51,10.45,12.29,10.45S167,140.21,167,134.44,161.47,124,154.69,124Z" fill="#093f68"></path><ellipse cx="232.18" cy="134.44" rx="13.29" ry="11.45" fill="#ffc9b0"></ellipse><path d="M232.18,146.89c-7.88,0-14.29-5.58-14.29-12.45S224.3,122,232.18,122s14.3,5.58,14.3,12.45S240.06,146.89,232.18,146.89Zm0-22.9c-6.77,0-12.29,4.69-12.29,10.45s5.52,10.45,12.29,10.45,12.3-4.68,12.3-10.45S239,124,232.18,124Z" fill="#093f68"></path><path d="M233.88,106.47v25.21a40.09,40.09,0,0,1-80.18,0V110.1s10.09-5.76,13.09-14.83c0,0,15.41,17.52,30.26,16.33A343.88,343.88,0,0,0,233.88,106.47Z" fill="#ffc9b0"></path><path d="M193.79,172.77a41.09,41.09,0,0,1-41.09-41.09V110.1a1,1,0,0,1,.5-.87c.1,0,9.8-5.69,12.64-14.27a1,1,0,0,1,1.7-.35c.15.17,15.29,17.13,29.43,16a343.35,343.35,0,0,0,36.71-5.11,1,1,0,0,1,1.2,1v25.21a41.09,41.09,0,0,1-41.09,41.09Zm-39.09-62.1v21a39.09,39.09,0,0,0,78.18,0v-24a352.33,352.33,0,0,1-35.75,4.91c-13,1-26.12-11.44-30-15.47C164,104.52,156.7,109.42,154.7,110.67Z" fill="#093f68"></path><path d="M193.6,139.33A22.42,22.42,0,0,1,190,139a1,1,0,0,1-.81-1.16,1,1,0,0,1,1.16-.81,17.1,17.1,0,0,0,5.66,0c.36-.91-1.06-5-3.12-9a1,1,0,0,1,1.78-.92c1,1.93,4.2,8.4,3.14,10.78a1.88,1.88,0,0,1-1.24,1.05A12.89,12.89,0,0,1,193.6,139.33Z" fill="#093f68"></path><path d="M170.75,236.11a1,1,0,0,1-1-1V204.68a1,1,0,0,1,2,0v30.43A1,1,0,0,1,170.75,236.11Z" fill="#093f68"></path><path d="M216.12,236.11a1,1,0,0,1-1-1V204.68a1,1,0,0,1,2,0v30.43A1,1,0,0,1,216.12,236.11Z" fill="#093f68"></path><path d="M219.76,136.71v25.51a40.09,40.09,0,0,1-51.94,0V136.71A76.83,76.83,0,0,1,219.76,136.71Z" fill="#fff"></path><path d="M193.79,172.77A41.17,41.17,0,0,1,167.17,163a1,1,0,0,1-.35-.76V136.71a1,1,0,0,1,.66-.94,77.58,77.58,0,0,1,52.62,0,1,1,0,0,1,.66.94v25.51a1,1,0,0,1-.35.76A41.17,41.17,0,0,1,193.79,172.77Zm-25-11a39.07,39.07,0,0,0,49.94,0V137.42a75.44,75.44,0,0,0-49.94,0Z" fill="#093f68"></path><path d="M167.82,137.71a1,1,0,0,1-.72-.31L154,123.68a1,1,0,1,1,1.44-1.39L168.54,136a1,1,0,0,1,0,1.41A1,1,0,0,1,167.82,137.71Z" fill="#093f68"></path><path d="M219.76,137.71a1,1,0,0,1-.72-.31,1,1,0,0,1,0-1.41l14.12-13.62a1,1,0,0,1,1.41,0,1,1,0,0,1,0,1.42l-14.12,13.62A1,1,0,0,1,219.76,137.71Z" fill="#093f68"></path><path d="M168.82,146.89a1,1,0,0,1-.25-2,69.19,69.19,0,0,1,8-1.47,1,1,0,0,1,1.11.88,1,1,0,0,1-.89,1.1,68.2,68.2,0,0,0-7.75,1.43Z" fill="#093f68"></path><path d="M176.7,158.53a1,1,0,0,1-.24,0,47.64,47.64,0,0,1-8.93-3.17,1,1,0,0,1,.9-1.79,45.69,45.69,0,0,0,8.51,3,1,1,0,0,1-.24,2Z" fill="#093f68"></path><path d="M219,146.89a1.07,1.07,0,0,1-.25,0,67.69,67.69,0,0,0-7.75-1.43,1,1,0,1,1,.22-2,68.71,68.71,0,0,1,8,1.47,1,1,0,0,1-.24,2Z" fill="#093f68"></path><path d="M211.09,158.53a1,1,0,0,1-1-.75,1,1,0,0,1,.73-1.22,46.32,46.32,0,0,0,8.52-3,1,1,0,0,1,1.34.45,1,1,0,0,1-.45,1.34,47.37,47.37,0,0,1-8.92,3.17Z" fill="#093f68"></path><circle cx="177.83" cy="126.93" r="3.09" fill="#093f68"></circle><circle cx="209.75" cy="126.93" r="3.09" fill="#093f68"></circle><path d="M183.13,117.93h0l-14.76,0a1.59,1.59,0,0,1,0-3.18h0l14.76,0a1.59,1.59,0,0,1,0,3.18Z" fill="#093f68"></path><path d="M219.2,117.93h0l-14.76,0a1.59,1.59,0,0,1,0-3.18h0l14.76,0a1.59,1.59,0,0,1,0,3.18Z" fill="#093f68"></path><path d="M193.44,237.05a1,1,0,0,1-1-1V207.88a1,1,0,0,1,2,0v28.17A1,1,0,0,1,193.44,237.05Z" fill="#093f68"></path></g></svg>