<?xml version="1.0" encoding="utf-8"?>
<!-- Generator: Adobe Illustrator 23.1.0, SVG Export Plug-In . SVG Version: 6.00 Build 0)  -->
<svg version="1.1" id="Layer_1" xmlns="http://www.w3.org/2000/svg" xmlns:xlink="http://www.w3.org/1999/xlink" x="0px" y="0px"
	 viewBox="0 0 1200 1200" enable-background="new 0 0 1200 1200" xml:space="preserve">
<g>
	<g>
		<polygon fill="#2752BA" points="988.135,762.677 954.566,824.366 914.615,881.693 868.362,934.147 812.557,976.177 
			753.97,1013.802 692.016,1046.87 623.012,1059.939 554.036,1068.872 479.046,1064.073 405.739,1048.183 332.428,1028.326 
			267.949,988.157 211.962,937.593 159.619,884.052 112.743,824.923 84.14,755.104 64.631,682.719 50,608.363 54.065,532.489 
			75.108,459.725 96.787,387.476 136.201,323.176 181.247,263.217 234.246,209.803 297.024,168.637 363.384,132.467 436.72,113.617 
			512.08,112.481 587.14,110.677 661.809,122.56 732.822,148.928 795.709,190.718 854.001,237.324 908.547,288.711 953.01,349.577 
			979.137,420.192 1000.127,492.698 1016.201,567.111 1016.092,643.601 995.341,717.056 		"/>
	</g>
	<g>
		<path fill="none" d="M984.483,761.233c-68.461,173.159-243.609,301.211-430.394,308.941
			c-201.989,8.359-402.043-124.635-472.509-314.118C11.115,566.573,75.659,335.18,234.027,209.527
			C488.608,7.537,871.07,120.77,983.131,418.69c35.742,95.023,43.414,201.25,15.899,299.4
			C994.922,732.743,990.056,747.138,984.483,761.233z"/>
	</g>
	<g>
		<g>
			<g>
				<path fill="#FFFFFF" d="M542.812,142.317c-4.287,0.001-7.763-3.474-7.763-7.76l-0.003-25.391
					c-0.001-4.287,3.474-7.763,7.76-7.763c4.287-0.001,7.763,3.474,7.763,7.76l0.003,25.391
					C550.573,138.842,547.098,142.317,542.812,142.317z"/>
			</g>
		</g>
		<g>
			<g>
				<path fill="#FFFFFF" d="M542.83,299.899c-4.287,0.001-7.763-3.474-7.763-7.76l-0.004-36.117
					c-0.001-4.287,3.474-7.763,7.76-7.763c4.287-0.001,7.763,3.474,7.763,7.76l0.004,36.117
					C550.591,296.424,547.116,299.899,542.83,299.899z M542.821,214.551c-4.287,0.001-7.763-3.474-7.763-7.76l-0.004-36.117
					c-0.001-4.287,3.474-7.763,7.76-7.763c4.287-0.001,7.763,3.474,7.763,7.76l0.004,36.117
					C550.582,211.076,547.106,214.551,542.821,214.551z"/>
			</g>
		</g>
		<g>
			<g>
				<path fill="#FFFFFF" d="M542.919,1028.687c-4.287,0.001-7.763-3.474-7.763-7.76l-0.004-36.117
					c-0.001-4.287,3.474-7.763,7.76-7.763c4.287-0.001,7.763,3.474,7.763,7.76l0.004,36.117
					C550.68,1025.212,547.204,1028.687,542.919,1028.687z M542.909,943.339c-4.287,0.001-7.763-3.474-7.763-7.76l-0.004-36.117
					c-0.001-4.287,3.474-7.763,7.76-7.763c4.287-0.001,7.763,3.474,7.763,7.76l0.004,36.117
					C550.67,939.864,547.195,943.339,542.909,943.339z M542.901,871.105c-4.287,0.001-7.763-3.474-7.763-7.76l-0.007-49.231
					c-0.001-4.287,3.474-7.763,7.76-7.763c4.287-0.001,7.763,3.474,7.763,7.76l0.007,49.231
					C550.662,867.63,547.186,871.105,542.901,871.105z M542.89,785.757c-4.287,0.001-7.763-3.474-7.763-7.76l-0.004-36.117
					c-0.001-4.287,3.474-7.763,7.76-7.763c4.287-0.001,7.763,3.474,7.763,7.76l0.004,36.117
					C550.651,782.282,547.175,785.757,542.89,785.757z M542.88,700.41c-4.287,0.001-7.763-3.474-7.763-7.76l-0.004-36.117
					c-0.001-4.287,3.474-7.763,7.76-7.763c4.287-0.001,7.763,3.474,7.763,7.76l0.004,36.117
					C550.641,696.934,547.166,700.41,542.88,700.41z M542.87,628.175c-4.287,0.001-7.763-3.474-7.763-7.76l-0.005-49.229
					c-0.001-4.287,3.474-7.763,7.76-7.763c4.287-0.001,7.763,3.474,7.763,7.76l0.006,49.229
					C550.631,624.7,547.156,628.175,542.87,628.175z M542.861,542.829c-4.287,0.001-7.763-3.474-7.763-7.76l-0.004-36.117
					c-0.001-4.287,3.474-7.763,7.76-7.763c4.287-0.001,7.763,3.474,7.763,7.76l0.004,36.117
					C550.622,539.354,547.146,542.829,542.861,542.829z M542.851,457.481c-4.287,0.001-7.763-3.473-7.763-7.76l-0.006-36.117
					c-0.001-4.287,3.473-7.763,7.76-7.763c4.287-0.001,7.763,3.473,7.763,7.76l0.005,36.117
					C550.612,454.006,547.138,457.481,542.851,457.481z M542.841,385.247c-4.287,0.001-7.763-3.474-7.763-7.76l-0.005-49.231
					c-0.001-4.287,3.474-7.763,7.76-7.763c4.287-0.001,7.763,3.474,7.763,7.76l0.006,49.231
					C550.602,381.772,547.127,385.247,542.841,385.247z"/>
			</g>
		</g>
		<g>
			<g>
				<path fill="#FFFFFF" d="M542.927,1090.195c-4.287,0.001-7.763-3.474-7.763-7.76l-0.003-25.391
					c-0.001-4.287,3.474-7.762,7.76-7.762c4.287-0.001,7.763,3.474,7.763,7.76l0.003,25.391
					C550.688,1086.72,547.213,1090.195,542.927,1090.195z"/>
			</g>
		</g>
	</g>
	<g>
		<defs>
			<path id="SVGID_1_" d="M984.484,767.443c-68.461,173.159-243.609,301.211-430.394,308.941
				c-201.989,8.359-402.043-124.634-472.509-314.118C11.116,572.782,75.659,341.39,234.028,215.736
				c254.581-201.99,637.043-88.757,749.104,209.163c35.742,95.023,43.414,201.25,15.899,299.4
				C994.923,738.953,990.057,753.347,984.484,767.443z"/>
		</defs>
		<clipPath id="SVGID_2_">
			<use xlink:href="#SVGID_1_"  overflow="visible"/>
		</clipPath>
		<g clip-path="url(#SVGID_2_)">
			<g>
				<g>
					<path fill="#FD8E92" d="M915.336,454.428l-0.44,11.898l-0.415,12.314l-1.216,32.995l-0.155,4.468
						c-0.958,26.629-15.062,49.727-35.87,63.212c-9.378,6.055-20.107,10.186-31.615,11.799c-4.546,0.676-9.223,0.937-13.977,0.755
						c-6.001-0.181-11.821-1.064-17.38-2.57c-1.117-0.286-2.235-0.623-3.326-0.961c-0.883-0.259-1.766-0.571-2.65-0.883
						c-0.728-0.26-1.455-0.519-2.157-0.805c-11.977-4.623-22.525-12.103-30.814-21.533c-2.313-2.65-4.469-5.455-6.418-8.417
						c-8.601-12.937-13.461-28.55-13.047-45.228c0-0.338,0-0.701,0.026-1.04l0.984-27.538l0.725-19.927l0.518-14.211
						c0.181-5.066,0.96-9.976,2.207-14.678c2.156-7.898,5.766-15.173,10.493-21.512c12.234-16.473,32.107-26.815,54.164-26.012
						l28.161,1.01C888.778,388.859,916.605,418.784,915.336,454.428z"/>
				</g>
			</g>
			<g>
				<g>
					<path fill="#98D1D7" d="M1077.901,764.525l0.037,304.922l-474.436-0.748l-0.039-322.822
						c-0.006-49.75,33.216-93.374,69.742-104.888l68.272-16.947c5.871-1.455,11.794-2.781,17.718-3.951
						c17.744-3.509,35.721-5.746,53.802-6.631c6.183-0.313,12.366-0.47,18.549-0.47l23.096-0.003
						c46.581-0.006,92.799,8.536,136.291,25.184C1043.31,658.195,1077.895,708.461,1077.901,764.525z"/>
				</g>
			</g>
			<g>
				<g>
					<path fill="#0B050C" d="M697.846,1070.239c-0.856,0-1.551-0.696-1.551-1.553l-0.039-306.377c0-0.857,0.693-1.553,1.551-1.553
						c0.856,0,1.551,0.696,1.551,1.553l0.039,306.377C699.397,1069.543,698.705,1070.239,697.846,1070.239z"/>
				</g>
			</g>
			<g>
				<g>
					<path fill="#0B050C" d="M993.416,1070.203c-0.003,0-0.006,0-0.008,0c-0.859-0.005-1.549-0.705-1.543-1.562l1.543-251.351
						c0.006-0.854,0.698-1.543,1.551-1.543c0.003,0,0.006,0,0.008,0c0.859,0.006,1.549,0.705,1.543,1.563l-1.543,251.351
						C994.962,1069.514,994.269,1070.203,993.416,1070.203z"/>
				</g>
			</g>
			<g>
				<g>
					
						<path fill="none" stroke="#F9F9F9" stroke-width="2.9371" stroke-linecap="round" stroke-linejoin="round" stroke-miterlimit="10" d="
						M631.839,789.677"/>
				</g>
			</g>
			<g>
				<g>
					<path fill="#FD8E92" d="M897.678,621.398c-13.152,11.941-30.797,30.032-64.328,30.367c-16.103,0.14-31.574-5.649-46.494-17.835
						c-7.5-6.148-10.232-17.453-10.232-17.453s13.733-4.11,20.459-6.179c3.117-0.965,5.432-4.909,7.169-9.293
						c1.02-2.482,1.848-5.102,2.564-7.363c0.331-1.048,0.634-2.041,0.91-2.895c0.055-0.11,0.082-0.193,0.11-0.303
						c-0.166-0.083-0.331-0.165-0.497-0.303c-22.475-12.488-38.307-43.122-38.311-78.941c-0.002-18.944,4.436-36.427,11.907-50.573
						c11.083-20.875,28.894-34.444,48.941-34.447c18.198-0.002,33.173,10.667,43.157,25.253
						c9.598,14.034,15.225,30.275,17.101,47.04c0,0.028,0,0.028,0,0.028s0,0,0,0.028c0.36,3.337,0.581,6.728,0.637,10.065
						c0.082,1.792,0.083,3.557,0.001,5.349v0.027c-0.11,4.826-0.524,9.651-1.267,14.422c-0.221,1.572-0.496,3.116-0.799,4.66
						c-1.075,5.625-2.592,11.168-4.521,16.545c-2.73,7.583-6.726,14.726-11.109,21.482c-2.675,4.137-11.746,11.665-13.979,13.513
						c-0.331,0.248-0.495,0.414-0.495,0.414c0.744,5.239,2.234,10.919,3.807,14.752c0.193,0.441,0.385,0.91,0.579,1.323
						c2.206,5.018,4.827,8.823,7.198,11.553c0.055,0.055,0.055,0.055,0.082,0.083c0.249,0,0.497,0,0.746,0.027
						C876.968,613.845,894.782,620.543,897.678,621.398z"/>
				</g>
			</g>
			<g>
				<g>
					<path fill="#FFFFFF" d="M772.105,492.808c0,0,11.548-11.483,23.345-11.13c13.982,0.418,26.187,9.979,26.187,9.979
						s-12.562,9.575-24.628,9.831S772.105,492.808,772.105,492.808z"/>
				</g>
			</g>
			<g>
				<g>
					<circle fill="#020202" cx="785.241" cy="493.015" r="11.149"/>
				</g>
			</g>
			<g>
				<g>
					<path fill="#020202" d="M835.666,481.665L835.666,481.665c15.944-6.077,30.636-6.753,47.392-3.529
						c0,0-11.557-7.324-44.898-2.796C835.218,475.739,835.155,478.74,835.666,481.665z"/>
				</g>
			</g>
			<g>
				<g>
					<path fill="#020202" d="M820.703,481.667L820.703,481.667c-15.946-6.073-33.592-7.609-50.347-4.382
						c0,0,12.562-6.247,45.904-1.727C819.202,475.957,821.213,478.742,820.703,481.667z"/>
				</g>
			</g>
			<g>
				<g>
					<path fill="#020202" d="M888.304,441.735c1.944,4.583,3.586,8.783,3.855,9.476c4.761,12.28,7.313,23.035,7.826,36.297
						c0.086,2.228-3.778,29.924-1.336,29.939c0.534,0.003,5.05-0.012,5.603-0.041c16.853-0.896,29.978-14.497,30.354-30.579
						c0.729-31.177,4.483-60.369-2.004-89.764c-3.832-17.365-11.264-38.223-29.624-41.177c-17.079-2.748-31.669,12.444-48.809,14.83
						c-12.358,1.72-23.609-3.07-34.318-10.309c-48.319-32.657-102.747,32.412-57.728,69.103c0.846,0.69,1.709,1.363,2.587,2.019
						c16.47,12.303,37.602,18.048,58.389,17.505c22.958-0.601,39.287-9.516,58.22-20.258
						C882.308,428.232,885.599,435.356,888.304,441.735z"/>
				</g>
			</g>
			<g>
				<g>
					<g>
						<path fill="#FFFFFF" d="M842.636,494.238c0,0,11.548-11.483,23.345-11.13c13.982,0.418,26.187,9.979,26.187,9.979
							s-12.562,9.575-24.628,9.831S842.636,494.238,842.636,494.238z"/>
					</g>
				</g>
			</g>
			<g>
				<g>
					<circle fill="#020202" cx="853.758" cy="493.007" r="11.149"/>
				</g>
			</g>
			<g>
				<g>
					<path fill="#020202" d="M863.75,601.444c-22.524,4.491-48.503-11.343-53.897-14.837c-0.13-0.086-0.258-0.172-0.389-0.259
						c-0.172-0.129-0.344-0.216-0.474-0.345c22.137,10.612,52.471,2.626,52.471,2.626c-0.216,0.216-0.431,0.388-0.69,0.561
						C861.419,593.763,862.456,597.862,863.75,601.444z"/>
				</g>
			</g>
			<g>
				<g>
					<g>
						<path fill="#0B050C" d="M603.743,749.939c-0.859,0-1.551-0.696-1.551-1.553v-3.536c-0.003-36.359,18.41-73.257,46.909-94.003
							c0.696-0.501,1.665-0.352,2.17,0.341c0.502,0.693,0.351,1.665-0.342,2.168c-27.724,20.182-45.637,56.096-45.634,91.494v3.536
							C605.295,749.243,604.602,749.939,603.743,749.939z"/>
					</g>
				</g>
				<g>
					<g>
						<path fill="#0B050C" d="M605.273,794.698c-0.859,0-1.551-0.696-1.551-1.553l-0.003-26.856c0-0.857,0.693-1.553,1.551-1.553
							s1.551,0.696,1.551,1.553l0.003,26.856C606.824,794.002,606.131,794.698,605.273,794.698z"/>
					</g>
				</g>
				<g>
					<g>
						<path fill="#0B050C" d="M605.275,830.506c-0.858,0-1.551-0.696-1.551-1.553v-8.951c0-0.857,0.693-1.553,1.551-1.553
							c0.859,0,1.551,0.696,1.551,1.553v8.951C606.827,829.81,606.134,830.506,605.275,830.506z"/>
					</g>
				</g>
			</g>
			<g>
				<defs>
					<path id="SVGID_3_" d="M603.515,1075.521l-0.04-329.645c-0.006-49.744,33.193-93.361,69.73-104.873l68.26-16.969
						c29.469-7.326,59.721-11.031,90.086-11.035l23.092-0.003c46.59-0.006,92.787,8.527,136.301,25.176l0,0
						c52.366,20.035,86.95,70.291,86.957,126.358l1.467,304.875L603.515,1075.521z"/>
				</defs>
				<clipPath id="SVGID_4_">
					<use xlink:href="#SVGID_3_"  overflow="visible"/>
				</clipPath>
				<g clip-path="url(#SVGID_4_)">
					<g>
						<path fill="#DCFCFF" d="M924.442,1098.596l-3.71-1.7c27.619-60.277,27.956-114.707,0.969-157.405
							c-20.375-32.241-49.258-46.691-49.548-46.833c-1.739-0.932-41.256-22.272-52.717-42.002
							c-8.039-13.866-11.39-29.731-14.633-45.072c-2.302-10.898-4.685-22.168-8.726-32.555
							c-11.633-29.834-38.034-54.012-70.622-64.676c-30.338-9.916-64.883-8.291-97.25,4.578c-9.38,3.745-16.897,7.821-22.973,12.458
							l-2.473-3.244c6.374-4.865,14.203-9.119,23.936-13.003c33.261-13.221,68.784-14.874,100.03-4.667
							c33.733,11.038,61.082,36.112,73.153,67.072c4.163,10.7,6.581,22.134,8.916,33.192c3.177,15.028,6.46,30.567,14.17,43.869
							c10.879,18.73,50.652,40.207,51.053,40.422c1.159,0.567,30.15,15.075,51.136,48.281
							C944.505,967.938,960.094,1020.78,924.442,1098.596z"/>
					</g>
				</g>
				<g clip-path="url(#SVGID_4_)">
					<g>
						<path fill="#DCFCFF" d="M1076.885,823.622l-8.621-5.005c-21.629-12.533-43.994-25.493-64.43-40.637
							c-23.257-17.169-39.735-34.477-50.368-52.912c-13.455-23.195-17.634-49.252-11.467-71.483
							c2.747-10.033,7.964-19.557,15.086-27.535c10.123-11.452,23.312-18.676,37.134-20.334l0.486,4.05
							c-12.828,1.539-25.104,8.284-34.57,18.994c-6.711,7.517-11.622,16.473-14.203,25.909c-5.877,21.188-1.844,46.1,11.064,68.358
							c10.352,17.942,26.465,34.843,49.264,51.674c20.254,15.009,42.517,27.911,64.049,40.388l8.629,5.009L1076.885,823.622z"/>
					</g>
				</g>
				<g clip-path="url(#SVGID_4_)">
					<g>
						<path fill="#DCFCFF" d="M868.335,1089.663l-3.263-2.449c70.365-93.845-31.602-182.363-38.639-188.279
							c-12.767-2.78-21.303-14.502-27.326-24.453c-18.934-31.283-31.528-66.599-41.844-97.246
							c-3.776-11.215-7.68-22.81-16.304-30.58c-7.616-6.861-19.103-10.578-34.139-11.046c-31.922-0.99-66.484,10.544-102.843,34.287
							c-6.495,4.242-13.863,9.337-19.105,16.171l-3.235-2.482c5.631-7.344,13.333-12.68,20.11-17.104
							c37.074-24.208,72.466-35.98,105.2-34.949c16.254,0.505,28.273,4.461,36.745,12.092c9.416,8.486,13.676,21.143,17.435,32.31
							c10.25,30.439,22.749,65.505,41.468,96.434c5.67,9.366,13.653,20.407,25.143,22.669l0.494,0.098l0.395,0.318
							C829.779,896.389,943.147,989.886,868.335,1089.663z"/>
					</g>
				</g>
				<g clip-path="url(#SVGID_4_)">
					<g>
						<path fill="#DCFCFF" d="M855.874,686.855c-0.95,0-1.913-0.008-2.893-0.026c-25.924-0.478-51.47-6.371-76.171-12.072
							c-26.929-6.214-54.774-12.64-80.557-24.196c-19.056-8.54-36.886-19.852-54.131-30.791l2.186-3.445
							c17.121,10.861,34.826,22.094,53.612,30.512c25.419,11.394,53.068,17.775,79.806,23.945
							c24.499,5.654,49.83,11.499,75.331,11.967c17.065,0.341,29.689-2.156,39.851-7.768c12.607-6.962,21.664-19.107,29.576-31.195
							c12.574-19.221,28.718-48.172,23.74-77.531l4.019-0.682c5.22,30.773-11.395,60.65-24.348,80.447
							c-8.196,12.529-17.629,25.141-31.017,32.534C884.66,684.196,872.208,686.855,855.874,686.855z"/>
					</g>
				</g>
				<g clip-path="url(#SVGID_4_)">
					<g>
						<path fill="#DCFCFF" d="M889.994,904.086l-11.456-32.204c-2.269-5.88-5.667-11.175-9.264-16.781
							c-2.007-3.128-4.08-6.36-5.921-9.684c-12.754-23.056-14.391-51.372-4.378-75.745c3.898-9.496,8.875-15.386,15.221-18.007
							c9.016-3.723,18.824-0.159,27.307,3.476c36.232,15.524,71.257,34.433,104.104,56.202c5.469,3.623,10.887,7.332,16.306,11.041
							c16.334,11.179,33.22,22.737,51.182,31.591c27.431,13.522,53.068,18.381,76.22,14.444l0.685,4.022
							c-24.005,4.088-50.49-0.896-78.71-14.809c-18.219-8.981-35.23-20.624-51.682-31.882c-5.402-3.698-10.805-7.395-16.254-11.006
							c-32.643-21.634-67.453-40.426-103.458-55.855c-7.718-3.306-16.593-6.573-24.143-3.453
							c-5.286,2.184-9.543,7.347-13.005,15.785c-9.405,22.894-7.804,50.567,4.177,72.222c1.775,3.208,3.812,6.384,5.783,9.456
							c3.547,5.531,7.216,11.249,9.653,17.566l11.475,32.255L889.994,904.086z"/>
					</g>
				</g>
				<g clip-path="url(#SVGID_4_)">
					<g>
						<path fill="#DCFCFF" d="M1145.881,798.757c-40.695-6.033-79.665-24.817-109.736-52.893
							c-16.662-15.555-28.096-31.876-33.987-48.508c-7.205-20.344-5.946-42.263,3.371-58.636
							c6.068-10.664,15.003-16.938,24.154-16.661l-0.105,4.077c-11.252-0.287-18.515,11.104-20.505,14.602
							c-8.737,15.357-9.885,36.014-3.07,55.257c5.67,16.007,16.748,31.783,32.924,46.887
							c29.471,27.515,67.666,45.925,107.549,51.838L1145.881,798.757z"/>
					</g>
				</g>
				<g clip-path="url(#SVGID_4_)">
					<g>
						<path fill="#DCFCFF" d="M1061.225,1069.908l-4.074-0.24c2.945-50.158-114.318-190.213-121.001-198.148
							c-15.398-7.26-24.237-23.23-30.86-37.924c-2.308-5.125-4.392-10.185-4.522-15.727c-0.152-6.596,2.934-12.519,7.862-15.089
							c7.522-3.921,16.154,0.689,20.635,3.783c12.16,8.4,21.074,20.453,29.692,32.107c2.175,2.943,4.348,5.88,6.57,8.756
							c8.911,11.546,22.907,27.283,41.46,30.644l0.558,0.186l74.28,37.579l-1.844,3.641l-74.017-37.446
							c-19.784-3.72-34.388-20.092-43.666-32.112c-2.236-2.899-4.428-5.859-6.62-8.823c-8.422-11.388-17.129-23.163-28.731-31.177
							c-3.721-2.571-10.805-6.451-16.43-3.522c-4.05,2.112-5.764,7.235-5.667,11.377c0.11,4.777,2.032,9.416,4.163,14.145
							c6.368,14.138,14.824,29.479,29.253,36.084l0.414,0.189l0.293,0.346C944.091,874.573,1064.333,1016.921,1061.225,1069.908z"/>
					</g>
				</g>
				<g clip-path="url(#SVGID_4_)">
					<g>
						<path fill="#DCFCFF" d="M812.835,1063.898l-4.036-0.577c15.086-105.722-124.789-154.527-126.205-155.009l-0.765-0.26
							l-0.381-0.715c-7.293-13.732-6.385-29.616-5.507-44.978c0.814-14.239,1.656-28.96-4.235-41.485
							c-1.524-3.245-3.197-5.086-5.107-5.631c-1.563-0.443-3.404-0.037-4.997,0.421c-9.648,2.784-17.521,9.028-25.852,15.64
							c-4.03,3.197-8.199,6.502-12.566,9.358c-9.101,5.952-19.558,10.174-30.244,12.21l-0.762-4.008
							c10.164-1.936,20.116-5.953,28.776-11.616c4.21-2.752,8.301-6,12.259-9.14c8.279-6.566,16.836-13.355,27.257-16.363
							c2.15-0.617,4.69-1.154,7.246-0.424c3.111,0.886,5.626,3.444,7.682,7.818c6.33,13.46,5.458,28.708,4.613,43.454
							c-0.87,15.201-1.689,29.575,4.679,42.136C696.17,908.883,827.802,959.034,812.835,1063.898z"/>
					</g>
				</g>
				<g clip-path="url(#SVGID_4_)">
					<g>
						<path fill="#DCFCFF" d="M841.867,744.788c-18.164,0.001-32.579-16.943-38.912-25.87c-4.679-6.599-5.723-12.988-2.863-17.531
							c2.299-3.648,7.117-5.702,12.293-5.239c3.84,0.346,7.326,1.83,10.7,3.267l1.123,0.476
							c13.032,5.488,32.052,10.552,48.646,3.524c1.662-0.704,4.806-1.735,7.221-0.698c1.123,0.483,1.943,1.344,2.377,2.493
							c0.403,1.066,0.331,2.12,0.193,3.099c-1.046,7.332-5.041,14.777-11.555,21.528c-3.478,3.607-7.393,6.798-11.627,9.482
							C853.329,743.202,847.421,744.787,841.867,744.788z M810.983,700.166c-2.639,0-5.844,0.865-7.44,3.395
							c-2.749,4.367,0.999,10.544,2.741,12.996l0,0c7.591,10.709,27.754,34.027,50.995,19.315c3.961-2.512,7.622-5.496,10.874-8.87
							c5.916-6.13,9.532-12.794,10.451-19.27c0.039-0.253,0.121-0.845,0.03-1.082c-0.729-0.428-2.233-0.311-4.19,0.52
							c-17.905,7.579-38.062,2.269-51.82-3.521l-1.137-0.483c-3.224-1.372-6.269-2.669-9.466-2.956
							C811.689,700.181,811.341,700.166,810.983,700.166z"/>
					</g>
				</g>
			</g>
			<g>
				<g>
					<path fill="#FD8E92" d="M919.122,485.709c3.292-0.883,6.727-1.318,9.975-0.161c3.249,1.157,6.304,4.128,7.56,8.465
						c1.566,5.408,0.007,11.819-2.842,16.087c-2.849,4.268-6.77,6.792-10.657,8.937c-7.696,4.248-16.211,7.451-24.185,4.351
						c-1.407-0.547-2.899-1.432-3.558-3.251c-0.376-1.039-0.424-2.243-0.447-3.41C894.61,497.957,907.212,488.903,919.122,485.709z"
						/>
				</g>
			</g>
			<g>
				<g>
					<path fill="#0B050C" d="M907.501,513.008c-0.558,0-1.085-0.302-1.361-0.805c-0.32-0.582-0.235-1.304,0.215-1.796l11.682-12.781
						c0.58-0.638,1.565-0.675,2.192-0.098c0.635,0.578,0.679,1.56,0.099,2.193l-8.809,9.638c3.431-0.298,6.885-0.231,10.305,0.207
						c0.85,0.109,1.452,0.887,1.344,1.738c-0.11,0.852-0.897,1.449-1.736,1.343c-4.541-0.582-9.135-0.468-13.662,0.335
						C907.68,513,907.589,513.008,907.501,513.008z"/>
				</g>
			</g>
			<g>
				<g>
					<path fill="#0B050C" d="M828.203,546.859c-1.723,0-3.47-0.311-5.195-0.994c-5.181-2.051-10.225-6.253-13.162-10.967
						c-0.456-0.729-0.232-1.685,0.497-2.139c0.726-0.453,1.684-0.228,2.137,0.497c2.565,4.116,7.147,7.932,11.671,9.723
						c7.144,2.829,15.354-2.752,18.54-9.736c0.359-0.781,1.284-1.121,2.057-0.767c0.781,0.356,1.126,1.277,0.77,2.057
						C842.469,541.209,835.543,546.859,828.203,546.859z"/>
				</g>
			</g>
			<g>
				<g>
					<path fill="#FDD772" d="M477.478,729.277l0.043,350.555l-419.41-0.674l-0.044-366.37
						c-0.005-43.967,29.346-82.535,61.648-92.719l60.34-14.998c2.998-0.742,6.012-1.45,9.027-2.093
						c23.194-5.093,46.866-7.649,70.62-7.652l20.411-0.002c20.592-0.003,41.101,1.889,61.265,5.61
						c0.231,0.049,0.445,0.082,0.675,0.132c19.933,3.721,39.537,9.237,58.564,16.516
						C446.909,635.285,477.472,679.709,477.478,729.277z"/>
				</g>
			</g>
			<g>
				<g>
					<path fill="#0B050C" d="M141.505,1088.94c-0.856,0-1.551-0.696-1.551-1.553l-0.047-367.789c0-0.857,0.693-1.553,1.551-1.553
						c0.859,0,1.551,0.696,1.551,1.553l0.047,367.789C143.057,1088.244,142.364,1088.94,141.505,1088.94z"/>
				</g>
			</g>
			<g>
				<g>
					<path fill="#0B050C" d="M385.307,1088.91c-0.859,0-1.551-0.696-1.551-1.553l-0.044-367.787c0-0.857,0.693-1.553,1.551-1.553
						c0.858,0,1.551,0.696,1.551,1.553l0.044,367.787C386.859,1088.214,386.166,1088.91,385.307,1088.91z"/>
				</g>
			</g>
			<g>
				<g>
					
						<path fill="none" stroke="#F9F9F9" stroke-width="2.5965" stroke-linecap="round" stroke-linejoin="round" stroke-miterlimit="10" d="
						M106.869,648.63"/>
				</g>
			</g>
			<g>
				<g>
					
						<path fill="none" stroke="#F9F9F9" stroke-width="2.5965" stroke-linecap="round" stroke-linejoin="round" stroke-miterlimit="10" d="
						M83.139,751.516"/>
				</g>
			</g>
			<g>
				<g>
					<g>
						<path fill="#0B050C" d="M58.304,716.565c-0.856,0-1.551-0.694-1.551-1.551l-0.003-3.126
							c-0.003-32.2,16.304-64.877,41.546-83.251c0.693-0.502,1.665-0.352,2.17,0.341c0.502,0.693,0.351,1.665-0.342,2.168
							c-24.466,17.809-40.273,49.501-40.27,80.741l0.003,3.125C59.858,715.868,59.162,716.563,58.304,716.565L58.304,716.565z"/>
					</g>
				</g>
				<g>
					<g>
						<path fill="#0B050C" d="M59.653,756.135c-0.859,0-1.551-0.696-1.551-1.553l-0.003-23.743c0-0.857,0.693-1.553,1.551-1.553
							c0.856,0,1.551,0.696,1.551,1.553l0.003,23.743C61.205,755.439,60.512,756.135,59.653,756.135z"/>
					</g>
				</g>
				<g>
					<g>
						<path fill="#0B050C" d="M59.656,787.791c-0.859,0-1.551-0.696-1.551-1.553v-7.914c0-0.857,0.693-1.553,1.551-1.553
							s1.551,0.696,1.551,1.553v7.914C61.208,787.096,60.515,787.791,59.656,787.791z"/>
					</g>
				</g>
			</g>
			<g>
				<g>
					
						<path fill="none" stroke="#F9F9F9" stroke-width="2.5965" stroke-linecap="round" stroke-linejoin="round" stroke-miterlimit="10" d="
						M324.697,560.298"/>
				</g>
			</g>
			<g>
				<g>
					<path fill="#020202" d="M153.659,605.051l-14.438,3.578c-20.983,6.615-41.043,22-56.311,42.761
						c-10.122-8.231-16.6-20.869-16.602-35.061c-0.003-24.852,19.854-44.983,44.368-44.986
						C131.344,571.34,148.709,585.665,153.659,605.051z"/>
				</g>
			</g>
			<g>
				<g>
					<circle fill="#020202" cx="216.582" cy="524.793" r="63.834"/>
				</g>
			</g>
			<g>
				<g>
					<path fill="#FD8E92" d="M344.243,601.065c0.84-0.099-74.378,123.46-74.378,123.46c-0.544,0-62.413-100.759-78.593-121.547
						l0.247-0.049c9.851-2.159,18.532-7.382,24.873-14.714c4.25-4.893,7.445-10.725,9.24-17.216
						c2.602-9.407,5.17-20.213,7.228-31.893c0.494-2.784,0.955-5.617,1.383-8.5c2.173-14.695,3.456-30.525,3.026-46.587
						l47.773,1.642c0,0,0.003,22.173,4.404,47.624c2.291,13.277,5.785,27.461,11.108,39.864c6.014,14.035,18.98,23.917,34.07,26.255
						C337.835,599.913,341.047,600.456,344.243,601.065z"/>
				</g>
			</g>
			<g>
				<g>
					<ellipse fill="#020202" cx="171.291" cy="609.224" rx="60.128" ry="60.951"/>
				</g>
			</g>
			<g>
				<g>
					<ellipse fill="#020202" cx="344.254" cy="559.783" rx="60.128" ry="60.951"/>
				</g>
			</g>
			<g>
				<g>
					<path fill="#020202" d="M437.335,610.839c0.001,8.549-3.095,16.375-8.217,22.372c-8.6-6.391-18.155-11.677-28.501-15.63
						c-10.065-3.854-20.296-7.213-30.658-10.062c1.645-17.347,16.058-30.906,33.602-30.908
						C422.208,576.609,437.332,591.928,437.335,610.839z"/>
				</g>
			</g>
			<g>
				<g>
					<ellipse fill="#020202" cx="312.946" cy="484.01" rx="45.302" ry="45.922"/>
				</g>
			</g>
			<g>
				<g>
					<path fill="#020202" d="M257.543,537.421c7.611,3.528,14.7,8.177,20.97,13.75c3.341,2.97,6.444,6.194,9.544,9.415
						c2.453,2.549,4.905,5.097,7.358,7.646c1.177,1.223,2.463,2.507,4.129,2.831c1.568,0.305,3.211-0.334,4.42-1.378
						c1.209-1.044,2.042-2.454,2.738-3.891c3.038-6.27,3.822-13.445,3.327-20.395c-0.495-6.95-2.21-13.749-3.967-20.492
						c-1.099-4.219-2.319-8.62-5.304-11.798c-3.419-3.641-8.628-5.058-13.616-5.309c-11.436-0.576-22.515,4.097-32.35,9.962
						c-4.288,2.557-7.146,6.641-7.505,11.783C246.965,534.162,254.236,535.888,257.543,537.421z"/>
				</g>
			</g>
			<g>
				<g>
					<circle fill="#020202" cx="249.52" cy="453.13" r="77.836"/>
				</g>
			</g>
			<g>
				<g>
					<path fill="#FD8E92" d="M319.76,433.897l-0.345,9.472l-0.345,9.785l-0.952,26.258l-0.131,3.559
						c-0.755,21.201-11.988,39.57-28.542,50.313c-10.41,6.739-22.929,10.464-36.273,9.987c-5.733-0.197-11.268-1.168-16.49-2.815
						c-1.285-0.395-2.57-0.856-3.822-1.35c-9.538-3.672-17.924-9.618-24.514-17.129c-1.845-2.108-3.559-4.349-5.108-6.688
						c-6.838-10.311-10.71-22.732-10.382-36.009c0-0.264,0-0.544,0.016-0.824l0.788-21.91l0.574-15.848l0.41-11.317
						c0.394-10.807,4.099-20.724,10.111-28.797c9.734-13.098,25.548-21.336,43.091-20.696l22.42,0.804
						C298.618,381.712,320.778,405.53,319.76,433.897z"/>
				</g>
			</g>
			<g>
				<g>
					<path fill="#FD8E92" d="M328.971,448.451c2.62-0.703,5.353-1.048,7.938-0.128c2.585,0.921,5.016,3.285,6.015,6.736
						c1.246,4.303,0.005,9.405-2.261,12.801c-2.267,3.396-5.387,5.404-8.48,7.112c-6.124,3.38-12.9,5.929-19.245,3.462
						c-1.12-0.435-2.307-1.14-2.831-2.587c-0.3-0.827-0.338-1.785-0.355-2.713C309.466,458.198,319.494,450.993,328.971,448.451z"/>
				</g>
			</g>
			<g>
				<g>
					<path fill="#0B050C" d="M319.723,470.492c-0.558,0-1.085-0.302-1.361-0.805c-0.32-0.582-0.235-1.304,0.215-1.796l9.297-10.171
						c0.577-0.636,1.565-0.675,2.192-0.098c0.635,0.578,0.679,1.561,0.099,2.193l-6.471,7.078c2.496-0.163,4.994-0.088,7.467,0.228
						c0.85,0.109,1.452,0.888,1.344,1.738c-0.113,0.85-0.889,1.447-1.736,1.343c-3.58-0.462-7.205-0.37-10.777,0.265
						C319.905,470.484,319.814,470.492,319.723,470.492z"/>
				</g>
			</g>
			<g>
				<g>
					<path fill="#FD8E92" d="M199.279,473.151c-0.016,0.923-0.049,1.878-0.346,2.718v0.016c-0.544,1.417-1.713,2.125-2.833,2.57
						c-1.071,0.412-2.158,0.676-3.245,0.824c-5.37,0.758-10.922-1.482-16.013-4.281c-3.081-1.713-6.211-3.722-8.468-7.116
						c-2.274-3.393-3.51-8.5-2.275-12.8c1.005-3.459,3.426-5.816,6.012-6.738c2.586-0.923,5.321-0.577,7.94,0.131
						c4.893,1.301,9.934,3.854,13.608,8.07c2.257,2.569,4.004,5.765,4.927,9.669C199.08,468.325,199.328,470.631,199.279,473.151z"
						/>
				</g>
			</g>
			<g>
				<g>
					<path fill="#020202" d="M332.146,424.358c-0.51,4.365-1.333,8.797-3.606,12.553c-2.009,3.278-5.353,5.948-9.125,6.459
						c-0.511,0.082-1.038,0.115-1.581,0.099c-1.318-0.05-2.669-0.379-3.723-1.153c-1.894-1.383-2.537-3.887-2.884-6.21
						c-0.198-1.318-0.346-2.635-0.429-3.97c-2.667,8.566-9.124,16.244-16.8,21.187c-0.972,0.626-2.043,1.236-3.196,1.252
						c-1.203,0-2.306-0.642-3.311-1.301c-3.493-2.29-6.672-5.09-9.391-8.252c-2.241-2.603-4.201-5.518-5.124-8.829
						c-0.692-2.504-0.775-5.139-0.841-7.742c-0.133-4.909-0.265-9.835-0.397-14.76c-0.361,14.167-8.448,28.006-20.785,35.025
						c-1.911,1.071-4.003,2.027-6.194,1.911c-2.141-0.132-4.102-1.268-5.749-2.651c-7.612-6.391-9.392-17.461-7.878-27.394
						c-1.07,5.551-2.585,11.087-5.55,15.898c-3.327,5.403-8.73,9.852-15.022,10.66c-4.052,0.528-7.99-0.526-11.466-2.601
						c-1.763-1.038-3.394-2.339-4.86-3.838c-2.422-2.454-4.399-5.436-5.684-8.598c-3.625-8.862-3.116-18.796-2.31-28.317
						l0.528,6.639c-0.265-6.342-0.463-12.981,2.238-18.731c1.878-4.036,5.057-7.298,8.285-10.363
						c0.214-0.197,0.412-0.395,0.626-0.576c0.873-0.824,1.746-1.631,2.652-2.438c0.132-0.115,0.247-0.231,0.379-0.33
						c13.457-11.879,29.748-21.369,47.539-21.833c8.336-0.215,16.572,1.547,24.842,2.452c5.222,0.559,10.51,0.789,15.6,2.024
						c16.26,3.935,28.435,17.573,36.673,32.118c2.719,4.793,5.141,9.801,6.278,15.188
						C333.002,413.321,332.772,418.905,332.146,424.358z"/>
				</g>
			</g>
			<g>
				<g>
					<path fill="#0B050C" d="M254.915,510.182c-1.64,0-3.299-0.295-4.939-0.944c-4.916-1.946-9.698-5.931-12.475-10.397
						c-0.455-0.727-0.232-1.685,0.497-2.138c0.726-0.455,1.687-0.23,2.137,0.498c2.41,3.87,6.722,7.463,10.984,9.15
						c6.697,2.658,14.413-2.589,17.402-9.154c0.359-0.778,1.284-1.124,2.057-0.767c0.781,0.355,1.124,1.275,0.77,2.057
						C268.458,504.823,261.885,510.182,254.915,510.182z"/>
				</g>
			</g>
			<g>
				<g>
					<path fill="#020202" d="M200.102,472.492c0,0,16.472-8.239,26.357-4.945c9.884,3.293,13.18,13.177,13.18,13.177"/>
				</g>
			</g>
			<g>
				<g>
					<path fill="#FFFFFF" d="M240.781,481.86c0,0-6.35-23.263-40.774-8.713C200.007,473.147,215.491,490.129,240.781,481.86z"/>
				</g>
			</g>
			<g>
				<g>
					<circle fill="#020202" cx="228.948" cy="477.851" r="8.237"/>
				</g>
			</g>
			<g>
				<g>
					<path fill="#020202" d="M310.473,472.479c0,0-16.474-8.235-26.358-4.939c-9.884,3.296-13.177,13.18-13.177,13.18"/>
				</g>
			</g>
			<g>
				<g>
					<path fill="#FFFFFF" d="M269.797,481.857c0,0,6.344-23.264,40.772-8.723C310.569,473.134,295.089,490.119,269.797,481.857z"/>
				</g>
			</g>
			<g>
				<g>
					<circle fill="#020202" cx="289.899" cy="477.843" r="8.237"/>
				</g>
			</g>
			<g>
				<g>
					<path fill="#0B050C" d="M264.383,755.731c-0.629,0-1.22-0.385-1.452-1.008c-8.428-22.457-37.871-60.006-45.642-69.7
						l-7.426,26.747c-0.168,0.6-0.676,1.042-1.295,1.124c-0.624,0.092-1.226-0.215-1.54-0.752
						c-7.873-13.384-17.187-27.911-19.139-29.054c-0.723-0.422-1.019-1.364-0.618-2.099c0.395-0.738,1.275-1.048,2.018-0.671
						c3.012,1.503,13.386,18.442,18.556,27.112l7.26-26.143c0.155-0.558,0.607-0.983,1.176-1.103
						c0.552-0.124,1.151,0.084,1.518,0.533c1.554,1.891,38.172,46.622,48.036,72.917c0.304,0.803-0.105,1.698-0.905,1.999
						C264.748,755.699,264.566,755.731,264.383,755.731z"/>
				</g>
			</g>
			<g>
				<g>
					<path fill="#0B050C" d="M282.503,755.728c-0.182,0-0.364-0.032-0.544-0.099c-0.803-0.301-1.212-1.195-0.911-1.999
						c9.858-26.295,46.465-71.036,48.016-72.928c0.367-0.449,0.969-0.66,1.521-0.533c0.569,0.119,1.021,0.545,1.176,1.103
						l7.266,26.141c5.168-8.672,15.542-25.611,18.548-27.116c0.765-0.384,1.698-0.075,2.084,0.694
						c0.381,0.763,0.075,1.692-0.685,2.079c-1.96,1.161-11.263,15.678-19.13,29.056c-0.315,0.537-0.928,0.838-1.54,0.752
						c-0.618-0.081-1.126-0.523-1.295-1.123l-7.431-26.744c-7.768,9.698-37.203,47.257-45.62,69.711
						C283.724,755.343,283.133,755.728,282.503,755.728z"/>
				</g>
			</g>
			<g>
				<g>
					<path fill="#020202" d="M295.951,458.693c0.552-0.034,1.196-0.024,1.54,0.409c0.17,0.213,0.231,0.495,0.239,0.767
						c0.031,1.063-0.682,2.039-1.581,2.608c-0.899,0.569-1.963,0.805-3.007,1.009c-4.136,0.812-8.328,1.301-12.515,1.79
						c-1.35,0.158-7.828,1.369-8.696-0.013c-1.159-1.845,4.026-3.034,5.056-3.328C283.168,460.178,289.537,459.086,295.951,458.693z
						"/>
				</g>
			</g>
			<g>
				<g>
					<path fill="#020202" d="M214.239,458.703c-0.552-0.034-1.196-0.024-1.54,0.409c-0.17,0.213-0.231,0.495-0.239,0.767
						c-0.031,1.063,0.683,2.039,1.581,2.608c0.899,0.569,1.964,0.804,3.007,1.009c4.136,0.811,8.328,1.299,12.515,1.787
						c1.35,0.157,7.828,1.367,8.696-0.015c1.159-1.845-4.027-3.033-5.057-3.326C227.022,460.185,220.653,459.095,214.239,458.703z"
						/>
				</g>
			</g>
			<g>
				<g>
					<path fill="#FBF39C" d="M208.345,521.977c-9.984-11.398-15.884-26.405-15.49-42.697c-5.37,0.758-10.922-1.482-16.013-4.281
						c-3.081-1.713-6.211-3.722-8.468-7.116c-2.274-3.393-3.51-8.5-2.275-12.8c1.005-3.459,3.426-5.816,6.012-6.738
						c2.586-0.923,5.321-0.577,7.94,0.131c4.893,1.301,9.934,3.854,13.608,8.07l0.574-15.848c-2.422-2.454-4.399-5.436-5.684-8.598
						c-3.625-8.862-3.116-18.796-2.31-28.317l0.528,6.639c-0.265-6.342-0.463-12.981,2.238-18.731
						c1.878-4.036,5.057-7.298,8.285-10.363c0.214-0.197,0.412-0.395,0.626-0.576c1.104-0.544,2.24-1.038,3.393-1.5l-0.741-0.939
						c0.132-0.115,0.247-0.231,0.379-0.33c2.455,4.184,3.741,9.159,4.038,14.035c0.182,2.867,0.067,5.717-0.229,8.566
						c-0.461,4.843-1.432,9.67-2.239,14.463c-1.679,9.769-2.831,19.604-3.423,29.488c-0.461,7.232-0.624,14.464-0.508,21.679
						c0.066,3.229,0.165,6.441,0.347,9.654v0.016c0.05,1.219,0.115,2.454,0.198,3.673c0.297,4.448,0.693,8.912,1.83,13.228
						c1.582,5.963,4.532,11.498,6.279,17.412C208.377,513.987,208.954,518.122,208.345,521.977z"/>
				</g>
			</g>
			<g>
				<g>
					<path fill="#0B050C" d="M189.309,470.507c-0.088,0-0.179-0.008-0.271-0.025c-3.575-0.632-7.199-0.72-10.774-0.261
						c-0.875,0.105-1.629-0.491-1.739-1.343c-0.108-0.85,0.491-1.627,1.342-1.738c2.479-0.319,4.977-0.392,7.47-0.231l-6.473-7.077
						c-0.58-0.632-0.536-1.615,0.099-2.193c0.627-0.576,1.609-0.538,2.192,0.098l9.3,10.168c0.45,0.49,0.536,1.213,0.215,1.796
						C190.394,470.205,189.869,470.507,189.309,470.507z"/>
				</g>
			</g>
			<g>
				<g>
					<path fill="#FBF39C" d="M236.681,540.457c-0.033,2.323-0.362,4.679-0.757,6.952c-2.222,12.833-6.141,25.386-11.642,37.198
						c-0.708,1.516-1.532,3.113-2.997,3.921c-1.516,0.824-3.377,0.561-4.893-0.312c4.25-4.893,7.445-10.725,9.24-17.216
						c2.602-9.407,5.17-20.213,7.228-31.893c-9.538-3.672-17.924-9.618-24.514-17.129c-1.845-2.108-3.559-4.349-5.108-6.688
						c0.725-0.33,1.581-0.626,2.603-0.857c7.314-1.665,23.41,8.942,28.402,16.173c0.445,0.626,0.791,1.235,1.038,1.796
						C236.417,534.938,236.763,537.673,236.681,540.457z"/>
				</g>
			</g>
		</g>
	</g>
</g>
</svg>
