<svg xmlns="http://www.w3.org/2000/svg" viewBox="0 0 400 300" width="406" height="306" class="illustration styles_illustrationTablet__1DWOa"><g id="_442_washing_hands_outline" data-name="#442_washing_hands_outline"><path d="M260.05,175.22c5.32-8.6,2.75-21.14-5.52-27A15.86,15.86,0,0,0,251,122.6c1.38-3.15.44-6.93-1.56-9.72-5.08-7.11-15.94-8.1-23.68-4s-12.77,11.92-16.17,20c-4.66,11-6.87,23.59-3.37,35,3.23,10.55,13.12,21.31,24.69,22.19C240.61,186.78,254.64,184,260.05,175.22Z" fill="#68e1fd"></path><path d="M234.07,187.16q-1.66,0-3.24-.12c-12.35-.94-22.4-12.5-25.58-22.9-4.05-13.25-.38-26.74,3.41-35.72,4.22-10,9.82-16.89,16.63-20.46,7.64-4,19.36-3.5,25,4.34a11.42,11.42,0,0,1,2,9.84,16.87,16.87,0,0,1,3.82,26c7.89,6.35,10.2,18.93,4.85,27.59h0C255.94,183.77,244.13,187.16,234.07,187.16Zm1.58-79.69a20.6,20.6,0,0,0-9.43,2.26c-6.39,3.35-11.68,9.9-15.72,19.47-3.66,8.67-7.21,21.67-3.33,34.36,3,9.76,12.34,20.61,23.81,21.48,10.36.79,23.38-2.51,28.22-10.35h0c5-8.14,2.58-20.11-5.24-25.61a1,1,0,0,1-.11-1.55,14.87,14.87,0,0,0-3.32-24,1,1,0,0,1-.45-1.28c1.33-3.07.12-6.52-1.46-8.74C245.63,109.29,240.65,107.47,235.65,107.47Z" fill="#093f68"></path><path d="M138.94,220.42l22.59-52.33S149.05,129.65,148,115.16s3-17,7-16.63,13.94,16.82,17,29.77l30.77-50.92s34.33,72.74,30.11,81.07-24.56,29-28.26,35.46S192,229.36,192,229.36Z" fill="#ffc9b0"></path><path d="M192,230.36h-.17l-53-8.94A1,1,0,0,1,138,220l22.45-52c-1.35-4.17-12.47-38.94-13.5-52.81-.62-8.28.35-13.54,2.95-16.06a6.1,6.1,0,0,1,5.15-1.63c4.51.46,13.67,15.66,17.29,28.22l29.55-48.9a1,1,0,0,1,1.76.09c3.53,7.49,34.41,73.44,30.1,82-2.4,4.74-9.57,13-16.5,21-5.24,6-10.2,11.74-11.79,14.53-3.6,6.31-12.46,35-12.55,35.26A1,1,0,0,1,192,230.36Zm-51.61-10.71,50.91,8.58c1.53-4.89,9.07-28.87,12.47-34.82,1.7-3,6.48-8.47,12-14.85,6.53-7.52,13.94-16,16.22-20.56,2.88-5.68-15.67-49.41-29.33-78.51l-29.8,49.33a1,1,0,0,1-1,.47,1,1,0,0,1-.82-.76c-3.07-12.9-12.94-28.67-16.15-29a4.18,4.18,0,0,0-3.56,1.07c-1.46,1.42-3.05,5.08-2.35,14.48,1.06,14.21,13.4,52.32,13.53,52.7a1,1,0,0,1,0,.71Z" fill="#093f68"></path><path d="M178.55,87.39c-4.5-4.09-12.66-1.41-15,4.19-2.53,5.94.68,10.07,3.44,14.94,1.47,2.58-.52,5.25-.73,8-.05.78.31,8.46,1.39,8.32a14.3,14.3,0,0,0-8.94,4.89c-6.07,7.18-2,16.14,3.22,22.54a39.3,39.3,0,0,0-5.37,6.58,8.25,8.25,0,0,0,5.33,12.35,6.78,6.78,0,0,0-2.83,4.66A14.23,14.23,0,0,0,178,190.08a5.7,5.7,0,0,0,2.18,5.48c2.67,2.22,6.11,2.5,9.33,3.34,12.56,3.3,26.34,2.6,38.06-3,4-1.94,7.94-4.55,10.32-8.36s2.93-9,.44-12.73c-3.28-4.91-10.08-5.62-16-5.85a33.51,33.51,0,0,0-11.15-59c5.67-4.87,7.77-13,6.69-20.44-1.37-9.4-5.9-19.79-16.37-19.65S180.36,76.59,178.55,87.39Z" fill="#68e1fd"></path><path d="M204.73,201.9a61.23,61.23,0,0,1-15.53-2c-.71-.19-1.44-.35-2.16-.5-2.61-.57-5.3-1.16-7.55-3a7.17,7.17,0,0,1-2.65-4.86A15.22,15.22,0,0,1,158,173.71a9.23,9.23,0,0,1,1.82-4.06,9.26,9.26,0,0,1-4.2-13.26,37.35,37.35,0,0,1,4.9-6.13c-6.79-8.7-7.76-17.09-2.65-23.13a15.33,15.33,0,0,1,8.11-5,36.23,36.23,0,0,1-.79-7.67,14,14,0,0,1,.68-3.09c.49-1.66.92-3.08.17-4.4-.31-.55-.63-1.1-1-1.64-2.45-4.16-5-8.46-2.54-14.18a11.6,11.6,0,0,1,8.19-6.51,9.69,9.69,0,0,1,7.11,1C180.59,74.9,191.8,69,201.47,68.86c4.31,0,14.65,1.83,17.37,20.51,1.12,7.72-1.07,15.26-5.75,20.13a34.51,34.51,0,0,1,11.84,58.58c5.78.43,11.22,1.72,14.18,6.15,2.53,3.8,2.37,9.35-.42,13.82-2.16,3.45-5.67,6.31-10.74,8.74A53.78,53.78,0,0,1,204.73,201.9ZM178,189.08a1,1,0,0,1,.66.25,1,1,0,0,1,.31,1c-.42,1.67.63,3.45,1.85,4.47,1.88,1.57,4.22,2.08,6.7,2.62.75.17,1.5.33,2.24.53,13,3.41,26.27,2.36,37.37-3,4.72-2.26,8-4.87,9.91-8s2.89-8,.45-11.65c-2.89-4.34-9-5.16-15.17-5.4a1,1,0,0,1-.91-.7,1,1,0,0,1,.35-1.1,32.51,32.51,0,0,0-10.82-57.22,1,1,0,0,1-.71-.75,1,1,0,0,1,.33-1c5-4.33,7.47-11.82,6.35-19.54-.83-5.7-4-19-15.37-18.79-9.31.12-20.17,6-22,16.7a1,1,0,0,1-1.66.57,7.43,7.43,0,0,0-6.67-1.5A9.57,9.57,0,0,0,164.43,92c-2,4.8,0,8.32,2.42,12.39.33.55.65,1.1,1,1.67,1.17,2,.55,4.12,0,6a13,13,0,0,0-.6,2.66c-.06.92.3,6.17.82,7.35a1,1,0,0,1,.56.77,1,1,0,0,1-.86,1.12h0a13.37,13.37,0,0,0-8.31,4.55c-6.25,7.38-.66,16.49,3.23,21.26a1,1,0,0,1-.06,1.32,37.5,37.5,0,0,0-5.22,6.41,7.26,7.26,0,0,0,4.68,10.86,1,1,0,0,1,.77.82,1,1,0,0,1-.48,1,5.9,5.9,0,0,0-2.35,4,13.23,13.23,0,0,0,17.6,15A1,1,0,0,1,178,189.08ZM167.48,121.9h0Z" fill="#093f68"></path><path d="M171.76,95.46a1,1,0,0,1-.5-.13A1,1,0,0,1,170.9,94c2-3.5,4.7-5.65,7.92-6.4,5.52-1.29,10.59,2,10.81,2.16a1,1,0,0,1-1.11,1.67s-4.59-3-9.26-1.88c-2.66.62-4.89,2.46-6.64,5.46A1,1,0,0,1,171.76,95.46Z" fill="#093f68"></path><path d="M232.87,90.56S241.61,78,245.82,78.9s4.94,6.45,3.09,11.66S236,107.27,236,107.27Z" fill="#ffc9b0"></path><path d="M236,108.27a.93.93,0,0,1-.29,0,1,1,0,0,1-.7-.77l-3.08-16.71a1,1,0,0,1,.16-.76c1.53-2.19,9.36-13.07,14-12.06a5.68,5.68,0,0,1,3.79,2.85c1.38,2.49,1.39,6.28,0,10.12-1.9,5.34-12.71,16.59-13.17,17.07A1,1,0,0,1,236,108.27Zm-2-17.48,2.65,14.35c3-3.21,10-11,11.39-14.92,1.16-3.26,1.2-6.51.11-8.48a3.64,3.64,0,0,0-2.47-1.86C243.2,79.36,237.43,85.83,233.93,90.79Z" fill="#093f68"></path><path d="M207.38,231.5,195.2,185.12s-23.06-21.07-28.61-35.41-7.3-42.75-1.29-44.14,9.71,7.76,11.36,21.53,10.36,15,10.36,15,2-23.46.74-28.59S177.89,78.59,180,73.25s8.63-6.58,10.89-3.29,10.07,33.3,10.07,33.3S195,66.52,196.82,61.38s8.61-6.63,11.49-1.49a33.16,33.16,0,0,1,3.5,11.3s4.93-4.11,8.42.41a32.12,32.12,0,0,1,4.94,10.9A8.71,8.71,0,0,1,235,86.2c3.91,5.75,7,13.56,9.46,30s3.9,29.39,3.9,38.44-3.7,18.7-3.7,18.7l21,52.42Z" fill="#ffc9b0"></path><path d="M207.37,232.5a1,1,0,0,1-1-.75l-12.1-46.09c-2.51-2.32-23.31-21.78-28.66-35.59-4.6-11.88-7.06-35.85-3.18-43.16a4.09,4.09,0,0,1,2.61-2.31,5.82,5.82,0,0,1,4.82,1c3.76,2.65,6.37,9.86,7.75,21.43,1.21,10.1,6.25,13,8.47,13.87.38-4.84,1.69-22.81.66-27.08-.2-.85-.6-2.36-1.13-4.33-4.4-16.51-8.25-32.36-6.64-36.55a8.91,8.91,0,0,1,7.12-5.69,5.68,5.68,0,0,1,5.53,2.19c1.18,1.71,3.62,9.68,5.83,17.46C196.08,76.24,194.8,64,195.88,61a7.93,7.93,0,0,1,6.7-5.32,6.83,6.83,0,0,1,6.6,3.68,32.58,32.58,0,0,1,3.39,10.1,7.67,7.67,0,0,1,4.32-1A6,6,0,0,1,221,71a31.63,31.63,0,0,1,4.87,10.32,9.69,9.69,0,0,1,10,4.33c4.61,6.79,7.39,15.6,9.62,30.42,2.67,17.81,3.91,30.07,3.91,38.59,0,8.23-2.94,16.79-3.62,18.69l20.82,52a1,1,0,0,1-.08.9,1,1,0,0,1-.75.47l-58.29,5.73ZM166.48,106.43a3.93,3.93,0,0,0-.95.12c-.57.13-1,.77-1.3,1.29-3.31,6.26-1.5,29.14,3.29,41.51,5.4,14,28.13,34.82,28.36,35a1,1,0,0,1,.29.48l12,45.56,56.11-5.52-20.47-51.18a1,1,0,0,1,0-.73c0-.09,3.63-9.6,3.63-18.34,0-8.41-1.23-20.58-3.89-38.29-2.18-14.5-4.87-23.08-9.29-29.6a7.67,7.67,0,0,0-8.72-3.31,1,1,0,0,1-.81-.08,1,1,0,0,1-.49-.65,31.22,31.22,0,0,0-4.75-10.5,3.93,3.93,0,0,0-2.76-1.71A6.74,6.74,0,0,0,212.44,72a1,1,0,0,1-1,.16,1,1,0,0,1-.62-.83,32,32,0,0,0-3.37-10.91,4.81,4.81,0,0,0-4.69-2.66,5.93,5.93,0,0,0-5,4c-1.29,3.59,1.77,26.71,4.14,41.38a1,1,0,0,1-2,.41c-3.12-12-8.34-30.68-9.92-33a3.77,3.77,0,0,0-3.65-1.35,6.91,6.91,0,0,0-5.49,4.43c-1.6,4.16,4.43,26.79,6.71,35.32.53,2,.93,3.52,1.14,4.37,1.26,5.24-.63,28-.71,28.91a1,1,0,0,1-.38.7,1,1,0,0,1-.76.21c-.39-.06-9.5-1.53-11.22-15.9-1.27-10.68-3.73-17.79-6.91-20A3.85,3.85,0,0,0,166.48,106.43Z" fill="#093f68"></path><path d="M214.89,99.53a1,1,0,0,1-1-.89l-3.09-27.33a1,1,0,1,1,2-.23l3.08,27.34a1,1,0,0,1-.88,1.1Z" fill="#093f68"></path><path d="M228.66,101.59a1,1,0,0,1-1-.81l-3.49-18.09a1,1,0,1,1,2-.38l3.49,18.09a1,1,0,0,1-.79,1.17Z" fill="#093f68"></path><path d="M211.32,67.79s5.34-9.59,8.73-8.66,4.4,7.54,2.55,12.06-8.88,16.75-8.88,16.75Z" fill="#ffc9b0"></path><path d="M213.72,88.94l-.2,0a1,1,0,0,1-.79-.86l-2.4-20.16a.91.91,0,0,1,.12-.6c1-1.71,5.91-10.2,9.86-9.14A5.11,5.11,0,0,1,223.43,61a13.86,13.86,0,0,1,.1,10.56c-1.86,4.53-8.66,16.36-8.95,16.87A1,1,0,0,1,213.72,88.94Zm-1.37-21,2,16.81c2.17-3.84,6-10.85,7.32-14a11.82,11.82,0,0,0,0-8.91,3.23,3.23,0,0,0-1.85-1.81C218.19,59.66,214.73,63.81,212.35,68Z" fill="#093f68"></path><path d="M222.6,75.46S229,64.1,232.31,64.2s5.4,6.12,4.16,9.72-9.75,16.64-9.75,16.64S224.91,79.11,222.6,75.46Z" fill="#ffc9b0"></path><path d="M226.72,91.56a.76.76,0,0,1-.21,0,1,1,0,0,1-.77-.82c0-.11-1.81-11.28-4-14.72a1,1,0,0,1,0-1c1.57-2.77,6.93-11.77,10.54-11.77h.07a4.71,4.71,0,0,1,3.7,2.32,10.71,10.71,0,0,1,1.38,8.71c-1.26,3.67-9.51,16.32-9.86,16.86A1,1,0,0,1,226.72,91.56Zm-3-16.1c1.58,3,2.87,9,3.52,12.41,2.44-3.84,7.37-11.7,8.26-14.28a8.65,8.65,0,0,0-1.14-6.93,3,3,0,0,0-2.11-1.46h0C230.64,65.2,226.67,70.42,223.75,75.46Z" fill="#093f68"></path><circle cx="138.94" cy="156.76" r="6.76" fill="#68e1fd"></circle><path d="M138.94,164.51a7.76,7.76,0,1,1,7.76-7.75A7.77,7.77,0,0,1,138.94,164.51Zm0-13.51a5.76,5.76,0,1,0,5.76,5.76A5.76,5.76,0,0,0,138.94,151Z" fill="#093f68"></path><circle cx="160.48" cy="74" r="4.85" fill="#68e1fd"></circle><path d="M160.48,79.85A5.85,5.85,0,1,1,166.33,74,5.85,5.85,0,0,1,160.48,79.85Zm0-9.69A3.85,3.85,0,1,0,164.33,74,3.84,3.84,0,0,0,160.48,70.16Z" fill="#093f68"></path><circle cx="259.93" cy="104.26" r="5.73" fill="#68e1fd"></circle><path d="M259.94,111a6.73,6.73,0,1,1,6.72-6.72A6.74,6.74,0,0,1,259.94,111Zm0-11.45a4.73,4.73,0,1,0,4.72,4.73A4.73,4.73,0,0,0,259.94,99.53Z" fill="#093f68"></path><path d="M167,177.91a1,1,0,0,1-.55-.16,9.29,9.29,0,0,1-4.56-6.75c-.64-5.52,4.18-10.7,4.38-10.91a1,1,0,1,1,1.46,1.37s-4.39,4.73-3.86,9.31a7.45,7.45,0,0,0,3.68,5.31,1,1,0,0,1,.28,1.38A1,1,0,0,1,167,177.91Z" fill="#093f68"></path></g></svg>